# MagicaVoxel @ Ephtracy

# group
o 

# material
mtllib vampire.mtl
usemtl palette

# normals
vn -1 0 0
vn 1 0 0
vn 0 0 1
vn 0 0 -1
vn 0 -1 0
vn 0 1 0

# texcoords
vt 0.00585938 0.5
vt 0.0292969 0.5
vt 0.841797 0.5
vt 0.966797 0.5
vt 0.982422 0.5
vt 0.986328 0.5
vt 0.990234 0.5
vt 0.994141 0.5

# verts
v 1.1 3.4 -2
v 1.1 3.4 -2.1
v 1.1 3.5 -2.1
v 1.1 3.5 -2.2
v 1.1 3.6 -2
v 1.1 3.6 -2.2
v 1.2 3.3 -2.1
v 1.2 3.3 -2.2
v 1.2 3.4 -2.1
v 1.2 3.5 -1.9
v 1.2 3.5 -2
v 1.2 3.5 -2.1
v 1.2 3.5 -2.2
v 1.2 3.5 -2.3
v 1.2 3.6 -1.9
v 1.2 3.6 -2
v 1.2 3.6 -2.2
v 1.2 3.6 -2.3
v 1.2 3.7 -2
v 1.2 3.7 -2.1
v 1.2 3.7 -2.2
v 1.2 3.8 -2
v 1.2 3.8 -2.1
v 1.2 4.4 -2
v 1.2 4.4 -2.2
v 1.3 4.1 -2.2
v 1.3 4.1 -2.3
v 1.3 4.3 -2.2
v 1.3 4.3 -2.3
v 1.3 4.4 -2
v 1.3 4.4 -2.2
v 1.3 4.6 -2
v 1.3 4.6 -2.2
v 1.4 4.6 -2
v 1.4 4.6 -2.2
v 1.4 4.7 -2
v 1.4 4.7 -2.2
v 1.5 2.1 -1.8
v 1.5 2.1 -1.9
v 1.5 2.1 -2.2
v 1.5 2.2 -1.8
v 1.5 2.2 -1.9
v 1.5 2.2 -2.1
v 1.5 2.2 -2.2
v 1.5 2.3 -1.9
v 1.5 2.3 -2
v 1.5 2.3 -2.1
v 1.5 2.3 -2.2
v 1.5 2.4 -2
v 1.5 2.4 -2.2
v 1.5 2.8 -2
v 1.5 2.8 -2.2
v 1.5 2.9 -2
v 1.5 2.9 -2.1
v 1.5 3.6 -2.1
v 1.5 3.6 -2.2
v 1.5 4.4 -2.1
v 1.5 4.4 -2.2
v 1.5 4.5 -1.9
v 1.5 4.5 -2
v 1.5 4.5 -2.1
v 1.5 4.5 -2.2
v 1.5 4.5 -2.3
v 1.5 4.7 -1.9
v 1.5 4.7 -2
v 1.5 4.7 -2.2
v 1.5 4.7 -2.3
v 1.5 4.8 -2
v 1.5 4.8 -2.2
v 1.5 5.3 -1.9
v 1.5 5.3 -2
v 1.5 5.3 -2.1
v 1.5 5.3 -2.2
v 1.5 5.4 -1.8
v 1.5 5.4 -1.9
v 1.5 5.4 -2
v 1.5 5.4 -2.1
v 1.5 5.4 -2.2
v 1.5 5.6 -1.8
v 1.5 5.6 -1.9
v 1.5 5.6 -2
v 1.5 5.6 -2.1
v 1.5 5.7 -1.9
v 1.5 5.7 -2
v 1.6 2.1 -1.7
v 1.6 2.1 -1.8
v 1.6 2.2 -1.7
v 1.6 2.2 -1.8
v 1.6 2.2 -2.1
v 1.6 2.2 -2.2
v 1.6 2.3 -2.1
v 1.6 2.3 -2.2
v 1.6 2.4 -2
v 1.6 2.4 -2.1
v 1.6 2.4 -2.2
v 1.6 2.5 -2
v 1.6 2.5 -2.1
v 1.6 2.6 -1.9
v 1.6 2.6 -2
v 1.6 2.8 -1.9
v 1.6 2.8 -2
v 1.6 2.8 -2.2
v 1.6 2.9 -2
v 1.6 2.9 -2.1
v 1.6 3.1 -2.2
v 1.6 3.1 -2.3
v 1.6 3.6 -2
v 1.6 3.6 -2.1
v 1.6 3.6 -2.2
v 1.6 3.6 -2.3
v 1.6 3.7 -2
v 1.6 3.7 -2.2
v 1.6 3.8 -2.1
v 1.6 3.8 -2.2
v 1.6 3.9 -2
v 1.6 3.9 -2.1
v 1.6 4.2 -2
v 1.6 4.2 -2.2
v 1.6 4.3 -2.2
v 1.6 4.3 -2.3
v 1.6 4.4 -1.9
v 1.6 4.4 -2
v 1.6 4.4 -2.2
v 1.6 4.5 -1.9
v 1.6 4.5 -2
v 1.6 4.5 -2.2
v 1.6 4.5 -2.3
v 1.6 4.7 -1.9
v 1.6 4.7 -2
v 1.6 4.8 -1.9
v 1.6 4.8 -2
v 1.6 5.2 -2
v 1.6 5.2 -2.3
v 1.6 5.3 -1.8
v 1.6 5.3 -1.9
v 1.6 5.3 -2
v 1.6 5.3 -2.1
v 1.6 5.3 -2.2
v 1.6 5.4 -1.8
v 1.6 5.4 -1.9
v 1.6 5.4 -2
v 1.6 5.4 -2.1
v 1.6 5.4 -2.2
v 1.6 5.5 -2.2
v 1.6 5.5 -2.3
v 1.6 5.6 -1.8
v 1.6 5.6 -1.9
v 1.6 5.6 -2
v 1.6 5.6 -2.1
v 1.6 5.7 -1.8
v 1.6 5.7 -1.9
v 1.6 5.7 -2
v 1.6 5.8 -2
v 1.6 5.8 -2.2
v 1.7 3.2 -1.9
v 1.7 3.2 -2
v 1.7 3.3 -2.3
v 1.7 3.3 -2.4
v 1.7 3.4 -1.9
v 1.7 3.4 -2
v 1.7 3.4 -2.3
v 1.7 3.4 -2.4
v 1.7 3.6 -1.9
v 1.7 3.6 -2
v 1.7 3.6 -2.2
v 1.7 3.6 -2.3
v 1.7 3.7 -1.9
v 1.7 3.7 -2
v 1.7 3.7 -2.2
v 1.7 3.7 -2.3
v 1.7 3.8 -1.9
v 1.7 3.8 -2
v 1.7 3.8 -2.1
v 1.7 3.8 -2.2
v 1.7 3.9 -2
v 1.7 3.9 -2.1
v 1.7 4 -1.9
v 1.7 4 -2
v 1.7 4 -2.2
v 1.7 4 -2.3
v 1.7 4.2 -1.9
v 1.7 4.2 -2
v 1.7 4.2 -2.2
v 1.7 4.3 -2.2
v 1.7 4.3 -2.3
v 1.7 4.4 -1.9
v 1.7 4.4 -2
v 1.7 4.5 -1.8
v 1.7 4.5 -1.9
v 1.7 4.6 -1.8
v 1.7 4.6 -1.9
v 1.7 4.7 -2.2
v 1.7 4.7 -2.3
v 1.7 4.8 -2
v 1.7 4.8 -2.1
v 1.7 4.8 -2.2
v 1.7 4.8 -2.3
v 1.7 4.9 -2
v 1.7 4.9 -2.1
v 1.7 5.1 -1.9
v 1.7 5.1 -2
v 1.7 5.1 -2.3
v 1.7 5.2 -1.8
v 1.7 5.2 -1.9
v 1.7 5.2 -2
v 1.7 5.2 -2.3
v 1.7 5.2 -2.4
v 1.7 5.3 -1.8
v 1.7 5.3 -1.9
v 1.7 5.5 -2.2
v 1.7 5.5 -2.3
v 1.7 5.6 -1.7
v 1.7 5.6 -1.8
v 1.7 5.6 -2.3
v 1.7 5.6 -2.4
v 1.7 5.7 -1.8
v 1.7 5.7 -2
v 1.7 5.8 -1.7
v 1.7 5.8 -1.8
v 1.7 5.8 -2
v 1.7 5.8 -2.2
v 1.7 5.8 -2.3
v 1.7 5.9 -1.8
v 1.7 5.9 -2.2
v 1.8 3.4 -2.3
v 1.8 3.4 -2.4
v 1.8 3.5 -1.9
v 1.8 3.5 -2
v 1.8 3.5 -2.3
v 1.8 3.5 -2.4
v 1.8 3.6 -1.9
v 1.8 3.6 -2
v 1.8 3.7 -1.9
v 1.8 3.7 -2
v 1.8 3.8 -1.9
v 1.8 3.8 -2
v 1.8 3.8 -2.2
v 1.8 3.8 -2.3
v 1.8 4 -1.9
v 1.8 4 -2
v 1.8 4 -2.2
v 1.8 4 -2.3
v 1.8 4.2 -1.9
v 1.8 4.2 -2
v 1.8 4.8 -1.9
v 1.8 4.8 -2
v 1.8 4.8 -2.1
v 1.8 4.8 -2.3
v 1.8 4.9 -1.9
v 1.8 4.9 -2
v 1.8 4.9 -2.1
v 1.8 4.9 -2.3
v 1.8 5 -1.8
v 1.8 5 -2
v 1.8 5.1 -1.9
v 1.8 5.1 -2
v 1.8 5.1 -2.1
v 1.8 5.1 -2.3
v 1.8 5.1 -2.5
v 1.8 5.2 -1.8
v 1.8 5.2 -1.9
v 1.8 5.2 -2
v 1.8 5.2 -2.3
v 1.8 5.2 -2.4
v 1.8 5.3 -1.9
v 1.8 5.3 -2
v 1.8 5.6 -2.3
v 1.8 5.6 -2.4
v 1.8 5.6 -2.5
v 1.8 5.8 -2.2
v 1.8 5.8 -2.3
v 1.8 5.8 -2.4
v 1.8 5.9 -2.2
v 1.8 5.9 -2.3
v 1.9 3.7 -2.2
v 1.9 3.7 -2.3
v 1.9 3.8 -2.2
v 1.9 3.8 -2.3
v 1.9 4.9 -1.9
v 1.9 4.9 -2
v 1.9 4.9 -2.1
v 1.9 4.9 -2.2
v 1.9 5 -1.9
v 1.9 5 -2
v 1.9 5 -2.2
v 1.9 5 -2.3
v 1.9 5.1 -1.9
v 1.9 5.1 -2
v 1.9 5.1 -2.1
v 1.9 5.1 -2.2
v 1.9 5.1 -2.3
v 1.9 5.2 -1.9
v 1.9 5.2 -2
v 1.9 5.3 -1.7
v 1.9 5.3 -1.8
v 1.9 5.4 -1.7
v 1.9 5.4 -1.8
v 1.9 5.4 -1.9
v 1.9 5.5 -1.8
v 1.9 5.5 -1.9
v 1.9 5.6 -2.4
v 1.9 5.6 -2.5
v 1.9 5.7 -2.4
v 1.9 5.7 -2.5
v 2 5.8 -2.3
v 2 5.8 -2.4
v 2 5.9 -2.3
v 2 5.9 -2.4
v 2.1 3.3 -2
v 2.1 3.3 -2.4
v 2.1 3.4 -2
v 2.1 3.4 -2.3
v 2.1 3.5 -2.2
v 2.1 3.5 -2.3
v 2.1 3.5 -2.4
v 2.1 3.6 -2.2
v 2.1 3.6 -2.3
v 2.1 4.5 -1.8
v 2.1 4.5 -1.9
v 2.1 4.6 -1.8
v 2.1 4.6 -1.9
v 2.2 2.1 -1.8
v 2.2 2.1 -1.9
v 2.2 2.1 -2.2
v 2.2 2.2 -1.8
v 2.2 2.2 -1.9
v 2.2 2.2 -2
v 2.2 2.3 -2
v 2.2 2.3 -2.1
v 2.2 2.4 -2.1
v 2.2 2.4 -2.2
v 2.2 2.6 -2
v 2.2 2.6 -2.1
v 2.2 2.8 -2
v 2.2 2.8 -2.1
v 2.2 2.8 -2.2
v 2.2 2.9 -2.1
v 2.2 2.9 -2.2
v 2.2 3 -2
v 2.2 3 -2.1
v 2.2 3.1 -2.1
v 2.2 3.1 -2.2
v 2.2 3.2 -1.9
v 2.2 3.2 -2
v 2.2 3.2 -2.2
v 2.2 3.2 -2.3
v 2.2 3.3 -2
v 2.2 3.3 -2.3
v 2.2 3.4 -1.9
v 2.2 3.4 -2
v 2.2 3.6 -2.2
v 2.2 3.6 -2.3
v 2.2 3.7 -2.2
v 2.2 3.7 -2.3
v 2.2 5.1 -1.9
v 2.2 5.1 -2
v 2.2 5.2 -1.9
v 2.2 5.2 -2
v 2.2 5.4 -1.8
v 2.2 5.4 -1.9
v 2.2 5.5 -1.8
v 2.2 5.5 -1.9
v 2.2 5.6 -1.7
v 2.2 5.6 -1.8
v 2.2 5.7 -1.7
v 2.2 5.7 -1.8
v 2.3 2.1 -1.7
v 2.3 2.1 -1.8
v 2.3 2.2 -1.7
v 2.3 2.2 -1.8
v 2.3 2.2 -1.9
v 2.3 2.2 -2
v 2.3 2.3 -1.9
v 2.3 2.3 -2
v 2.3 2.3 -2.1
v 2.3 2.4 -2
v 2.3 2.4 -2.1
v 2.3 2.4 -2.2
v 2.3 2.5 -2
v 2.3 2.5 -2.1
v 2.3 2.6 -1.9
v 2.3 2.6 -2
v 2.3 2.6 -2.1
v 2.3 2.8 -1.9
v 2.3 2.8 -2
v 2.3 2.8 -2.1
v 2.3 2.8 -2.2
v 2.3 2.9 -2.1
v 2.3 2.9 -2.2
v 2.3 3 -2
v 2.3 3 -2.1
v 2.3 3.1 -2.1
v 2.3 3.1 -2.2
v 2.3 3.1 -2.3
v 2.3 3.2 -2.2
v 2.3 3.2 -2.3
v 2.3 4.3 -2.2
v 2.3 4.3 -2.3
v 2.3 4.4 -2.2
v 2.3 4.4 -2.3
v 2.3 5.2 -1.9
v 2.3 5.2 -2
v 2.3 5.3 -1.9
v 2.3 5.3 -2
v 2.5 4.3 -2.1
v 2.5 4.3 -2.2
v 2.5 4.4 -2.1
v 2.5 4.4 -2.2
v 2.6 3.9 -2.1
v 2.6 3.9 -2.2
v 2.6 4.3 -2.1
v 2.6 4.3 -2.2
v 2.6 4.4 -2.1
v 2.6 4.4 -2.2
v 2.6 4.5 -2.1
v 2.6 4.5 -2.2
v 2.7 3.3 -2.1
v 2.7 3.3 -2.2
v 2.7 3.5 -1.9
v 2.7 3.5 -2
v 2.7 3.5 -2.2
v 2.7 3.5 -2.3
v 2.7 3.6 -1.9
v 2.7 3.6 -2
v 2.7 3.6 -2.1
v 2.7 3.6 -2.2
v 2.7 3.6 -2.3
v 2.7 3.7 -2
v 2.7 3.7 -2.1
v 2.7 3.7 -2.2
v 2.7 3.8 -2
v 2.7 3.8 -2.1
v 2.7 3.8 -2.2
v 2.7 3.8 -2.3
v 2.7 3.9 -2.1
v 2.7 3.9 -2.2
v 2.7 4.3 -2
v 2.7 4.3 -2.1
v 2.7 4.4 -2.2
v 2.7 4.4 -2.3
v 2.8 3.4 -2
v 2.8 3.4 -2.1
v 2.8 3.5 -2
v 2.8 3.6 -2
v 2.8 3.6 -2.1
v 1.2 3.4 -2
v 1.2 3.4 -2.1
v 1.2 3.5 -2
v 1.2 3.6 -2
v 1.2 3.6 -2.1
v 1.3 3.3 -2.1
v 1.3 3.3 -2.2
v 1.3 3.5 -1.9
v 1.3 3.5 -2
v 1.3 3.5 -2.2
v 1.3 3.5 -2.3
v 1.3 3.6 -1.9
v 1.3 3.6 -2
v 1.3 3.6 -2.1
v 1.3 3.6 -2.2
v 1.3 3.6 -2.3
v 1.3 3.7 -2
v 1.3 3.7 -2.1
v 1.3 3.7 -2.2
v 1.3 3.8 -2
v 1.3 3.8 -2.1
v 1.3 3.9 -2
v 1.3 3.9 -2.1
v 1.3 4.1 -2.1
v 1.3 4.1 -2.2
v 1.4 3.9 -2
v 1.4 3.9 -2.1
v 1.4 4.1 -2.1
v 1.4 4.1 -2.3
v 1.4 4.3 -2.1
v 1.4 4.3 -2.2
v 1.4 4.3 -2.3
v 1.4 4.4 -2
v 1.4 4.4 -2.1
v 1.4 4.4 -2.2
v 1.4 4.5 -2.1
v 1.4 4.5 -2.2
v 1.5 4.3 -2.1
v 1.5 4.3 -2.2
v 1.5 4.4 -2.1
v 1.5 4.4 -2.2
v 1.7 2.1 -1.7
v 1.7 2.1 -1.8
v 1.7 2.2 -1.7
v 1.7 2.2 -1.8
v 1.7 2.2 -1.9
v 1.7 2.2 -2
v 1.7 2.3 -1.9
v 1.7 2.3 -2
v 1.7 2.3 -2.1
v 1.7 2.3 -2.2
v 1.7 2.4 -2
v 1.7 2.4 -2.1
v 1.7 2.4 -2.2
v 1.7 2.5 -2
v 1.7 2.5 -2.1
v 1.7 2.6 -1.9
v 1.7 2.6 -2
v 1.7 2.6 -2.1
v 1.7 2.8 -1.9
v 1.7 2.8 -2
v 1.7 2.8 -2.1
v 1.7 2.8 -2.2
v 1.7 2.9 -2.1
v 1.7 2.9 -2.2
v 1.7 3 -2
v 1.7 3 -2.1
v 1.7 3.1 -2.1
v 1.7 3.1 -2.2
v 1.7 3.1 -2.3
v 1.7 3.2 -2.2
v 1.7 3.2 -2.3
v 1.8 2.1 -1.8
v 1.8 2.1 -1.9
v 1.8 2.1 -2.2
v 1.8 2.2 -1.8
v 1.8 2.2 -1.9
v 1.8 2.2 -2
v 1.8 2.3 -2.1
v 1.8 2.3 -2.2
v 1.8 2.4 -2
v 1.8 2.4 -2.1
v 1.8 2.6 -2
v 1.8 2.6 -2.1
v 1.8 2.8 -2
v 1.8 2.8 -2.1
v 1.8 2.8 -2.2
v 1.8 2.9 -2.1
v 1.8 2.9 -2.2
v 1.8 3 -2
v 1.8 3 -2.1
v 1.8 3.1 -2.1
v 1.8 3.1 -2.2
v 1.8 3.2 -1.9
v 1.8 3.2 -2
v 1.8 3.2 -2.2
v 1.8 3.2 -2.3
v 1.8 3.3 -2
v 1.8 3.3 -2.3
v 1.8 3.4 -1.9
v 1.8 3.4 -2
v 1.8 3.6 -2.2
v 1.8 3.6 -2.3
v 1.8 3.7 -2.2
v 1.8 3.7 -2.3
v 1.8 5.1 -1.9
v 1.8 5.1 -2
v 1.8 5.2 -1.9
v 1.8 5.2 -2
v 1.8 5.4 -1.8
v 1.8 5.4 -1.9
v 1.8 5.5 -1.8
v 1.8 5.5 -1.9
v 1.8 5.6 -1.7
v 1.8 5.6 -1.8
v 1.8 5.7 -1.7
v 1.8 5.7 -1.8
v 1.9 3.3 -2
v 1.9 3.3 -2.4
v 1.9 3.4 -2
v 1.9 3.4 -2.3
v 1.9 3.5 -2.2
v 1.9 3.5 -2.3
v 1.9 3.5 -2.4
v 1.9 3.6 -2.2
v 1.9 3.6 -2.3
v 1.9 4.5 -1.8
v 1.9 4.5 -1.9
v 1.9 4.6 -1.8
v 1.9 4.6 -1.9
v 2.1 3.7 -2.2
v 2.1 3.7 -2.3
v 2.1 3.8 -2.2
v 2.1 3.8 -2.3
v 2.1 4.9 -1.9
v 2.1 4.9 -2
v 2.1 4.9 -2.1
v 2.1 4.9 -2.2
v 2.1 5 -1.9
v 2.1 5 -2
v 2.1 5 -2.2
v 2.1 5 -2.3
v 2.1 5.1 -1.9
v 2.1 5.1 -2
v 2.1 5.1 -2.1
v 2.1 5.1 -2.2
v 2.1 5.1 -2.3
v 2.1 5.1 -2.4
v 2.1 5.1 -2.5
v 2.1 5.2 -1.9
v 2.1 5.2 -2
v 2.1 5.2 -2.4
v 2.1 5.2 -2.5
v 2.1 5.3 -1.7
v 2.1 5.3 -1.8
v 2.1 5.4 -1.7
v 2.1 5.4 -1.8
v 2.1 5.4 -1.9
v 2.1 5.5 -1.8
v 2.1 5.5 -1.9
v 2.1 5.6 -2.4
v 2.1 5.6 -2.5
v 2.1 5.7 -2.4
v 2.1 5.7 -2.5
v 2.1 5.8 -2.3
v 2.1 5.8 -2.4
v 2.1 5.9 -2.3
v 2.1 5.9 -2.4
v 2.2 3.4 -2.3
v 2.2 3.4 -2.4
v 2.2 3.5 -1.9
v 2.2 3.5 -2
v 2.2 3.5 -2.3
v 2.2 3.5 -2.4
v 2.2 3.6 -1.9
v 2.2 3.6 -2
v 2.2 3.7 -1.9
v 2.2 3.7 -2
v 2.2 3.8 -1.9
v 2.2 3.8 -2
v 2.2 3.8 -2.2
v 2.2 3.8 -2.3
v 2.2 4 -1.9
v 2.2 4 -2
v 2.2 4.2 -1.9
v 2.2 4.2 -2
v 2.2 4.4 -2.2
v 2.2 4.4 -2.3
v 2.2 4.8 -1.9
v 2.2 4.8 -2
v 2.2 4.8 -2.1
v 2.2 4.8 -2.3
v 2.2 4.9 -1.9
v 2.2 4.9 -2
v 2.2 4.9 -2.1
v 2.2 4.9 -2.3
v 2.2 5 -1.8
v 2.2 5 -2
v 2.2 5.1 -1.9
v 2.2 5.1 -2
v 2.2 5.1 -2.1
v 2.2 5.1 -2.3
v 2.2 5.1 -2.4
v 2.2 5.2 -1.8
v 2.2 5.2 -1.9
v 2.2 5.2 -2
v 2.2 5.2 -2.3
v 2.2 5.2 -2.4
v 2.2 5.2 -2.5
v 2.2 5.3 -1.9
v 2.2 5.3 -2
v 2.2 5.6 -2.3
v 2.2 5.6 -2.4
v 2.2 5.6 -2.5
v 2.2 5.8 -2.2
v 2.2 5.8 -2.3
v 2.2 5.8 -2.4
v 2.2 5.9 -2.2
v 2.2 5.9 -2.3
v 2.3 3.2 -1.9
v 2.3 3.2 -2
v 2.3 3.3 -2.3
v 2.3 3.3 -2.4
v 2.3 3.4 -1.9
v 2.3 3.4 -2
v 2.3 3.4 -2.3
v 2.3 3.4 -2.4
v 2.3 3.6 -1.9
v 2.3 3.6 -2
v 2.3 3.6 -2.2
v 2.3 3.6 -2.3
v 2.3 3.7 -1.9
v 2.3 3.7 -2
v 2.3 3.7 -2.2
v 2.3 3.7 -2.3
v 2.3 3.8 -1.9
v 2.3 3.8 -2
v 2.3 3.8 -2.1
v 2.3 3.8 -2.2
v 2.3 3.9 -2
v 2.3 3.9 -2.1
v 2.3 4 -1.9
v 2.3 4 -2
v 2.3 4.2 -1.9
v 2.3 4.2 -2
v 2.3 4.3 -2
v 2.3 4.3 -2.2
v 2.3 4.4 -1.9
v 2.3 4.4 -2
v 2.3 4.4 -2.2
v 2.3 4.4 -2.3
v 2.3 4.5 -1.8
v 2.3 4.5 -1.9
v 2.3 4.5 -2.2
v 2.3 4.5 -2.3
v 2.3 4.6 -1.8
v 2.3 4.6 -1.9
v 2.3 4.7 -2.2
v 2.3 4.7 -2.3
v 2.3 4.8 -2
v 2.3 4.8 -2.1
v 2.3 4.8 -2.2
v 2.3 4.8 -2.3
v 2.3 4.9 -2
v 2.3 4.9 -2.1
v 2.3 5.1 -2
v 2.3 5.1 -2.3
v 2.3 5.2 -2
v 2.3 5.2 -2.3
v 2.3 5.3 -2.3
v 2.3 5.3 -2.4
v 2.3 5.6 -1.7
v 2.3 5.6 -1.8
v 2.3 5.6 -2.2
v 2.3 5.6 -2.3
v 2.3 5.6 -2.4
v 2.3 5.8 -1.7
v 2.3 5.8 -1.8
v 2.3 5.8 -2.2
v 2.3 5.8 -2.3
v 2.3 5.9 -1.8
v 2.3 5.9 -2.2
v 2.4 2.1 -1.7
v 2.4 2.1 -1.8
v 2.4 2.2 -1.7
v 2.4 2.2 -1.8
v 2.4 2.2 -2.1
v 2.4 2.2 -2.2
v 2.4 2.3 -2
v 2.4 2.3 -2.1
v 2.4 2.3 -2.2
v 2.4 2.4 -2
v 2.4 2.4 -2.1
v 2.4 2.4 -2.2
v 2.4 2.5 -2
v 2.4 2.5 -2.1
v 2.4 2.6 -1.9
v 2.4 2.6 -2
v 2.4 2.8 -1.9
v 2.4 2.8 -2
v 2.4 2.8 -2.2
v 2.4 2.9 -2
v 2.4 2.9 -2.1
v 2.4 3.1 -2.2
v 2.4 3.1 -2.3
v 2.4 3.6 -2
v 2.4 3.6 -2.1
v 2.4 3.6 -2.2
v 2.4 3.6 -2.3
v 2.4 3.7 -2
v 2.4 3.7 -2.2
v 2.4 3.8 -2.1
v 2.4 3.8 -2.2
v 2.4 3.9 -2
v 2.4 3.9 -2.1
v 2.4 4.3 -2
v 2.4 4.3 -2.3
v 2.4 4.4 -1.9
v 2.4 4.4 -2
v 2.4 4.4 -2.2
v 2.4 4.4 -2.3
v 2.4 4.5 -1.9
v 2.4 4.5 -2
v 2.4 4.5 -2.2
v 2.4 4.5 -2.3
v 2.4 4.7 -1.9
v 2.4 4.7 -2
v 2.4 4.7 -2.2
v 2.4 4.7 -2.3
v 2.4 4.8 -1.9
v 2.4 4.8 -2
v 2.4 5.1 -1.9
v 2.4 5.1 -2
v 2.4 5.2 -1.8
v 2.4 5.2 -1.9
v 2.4 5.2 -2
v 2.4 5.2 -2.4
v 2.4 5.3 -1.8
v 2.4 5.3 -1.9
v 2.4 5.3 -2
v 2.4 5.3 -2.1
v 2.4 5.3 -2.2
v 2.4 5.3 -2.3
v 2.4 5.3 -2.4
v 2.4 5.4 -1.8
v 2.4 5.4 -1.9
v 2.4 5.4 -2
v 2.4 5.4 -2.1
v 2.4 5.4 -2.2
v 2.4 5.5 -2
v 2.4 5.5 -2.1
v 2.4 5.6 -1.8
v 2.4 5.6 -2
v 2.4 5.6 -2.2
v 2.4 5.6 -2.3
v 2.4 5.8 -1.8
v 2.4 5.8 -2.2
v 2.5 2.1 -1.8
v 2.5 2.1 -1.9
v 2.5 2.1 -2.2
v 2.5 2.2 -1.8
v 2.5 2.2 -1.9
v 2.5 2.2 -2.1
v 2.5 2.2 -2.2
v 2.5 2.3 -1.9
v 2.5 2.3 -2.1
v 2.5 2.3 -2.2
v 2.5 2.4 -2.1
v 2.5 2.4 -2.2
v 2.5 2.8 -2
v 2.5 2.8 -2.2
v 2.5 2.9 -2
v 2.5 2.9 -2.1
v 2.5 3.6 -2.1
v 2.5 3.6 -2.2
v 2.5 4.4 -2.1
v 2.5 4.4 -2.2
v 2.5 4.5 -1.9
v 2.5 4.5 -2
v 2.5 4.5 -2.1
v 2.5 4.5 -2.2
v 2.5 4.7 -1.9
v 2.5 4.7 -2
v 2.5 4.7 -2.2
v 2.5 4.8 -2
v 2.5 4.8 -2.2
v 2.5 5.3 -1.9
v 2.5 5.3 -2
v 2.5 5.3 -2.1
v 2.5 5.3 -2.2
v 2.5 5.4 -1.8
v 2.5 5.4 -1.9
v 2.5 5.4 -2
v 2.5 5.4 -2.1
v 2.5 5.4 -2.2
v 2.5 5.5 -2
v 2.5 5.5 -2.1
v 2.5 5.6 -1.8
v 2.5 5.6 -2
v 2.6 4.6 -2
v 2.6 4.6 -2.2
v 2.6 4.7 -2
v 2.6 4.7 -2.2
v 2.7 4.4 -2
v 2.7 4.4 -2.1
v 2.7 4.5 -2.1
v 2.7 4.5 -2.2
v 2.7 4.6 -2
v 2.7 4.6 -2.2
v 2.8 3.3 -2.1
v 2.8 3.3 -2.2
v 2.8 3.4 -2.1
v 2.8 3.5 -1.9
v 2.8 3.5 -2
v 2.8 3.5 -2.1
v 2.8 3.5 -2.2
v 2.8 3.5 -2.3
v 2.8 3.6 -1.9
v 2.8 3.6 -2
v 2.8 3.6 -2.2
v 2.8 3.6 -2.3
v 2.8 3.7 -2
v 2.8 3.7 -2.1
v 2.8 3.7 -2.2
v 2.8 3.8 -2
v 2.8 3.8 -2.1
v 2.8 3.8 -2.2
v 2.8 3.8 -2.3
v 2.8 4.3 -2
v 2.8 4.3 -2.1
v 2.8 4.4 -2.2
v 2.8 4.4 -2.3
v 2.8 4.5 -2.1
v 2.8 4.5 -2.2
v 2.9 3.4 -2
v 2.9 3.4 -2.1
v 2.9 3.5 -2.1
v 2.9 3.5 -2.2
v 2.9 3.6 -2
v 2.9 3.6 -2.2
v 1.6 2.1 -1.7
v 1.6 2.2 -1.7
v 1.7 2.1 -1.7
v 1.7 2.2 -1.7
v 1.7 5.6 -1.7
v 1.7 5.8 -1.7
v 1.8 5.6 -1.7
v 1.8 5.7 -1.7
v 1.9 5.3 -1.7
v 1.9 5.4 -1.7
v 2.1 5.3 -1.7
v 2.1 5.4 -1.7
v 2.2 5.6 -1.7
v 2.2 5.7 -1.7
v 2.3 2.1 -1.7
v 2.3 2.2 -1.7
v 2.3 5.6 -1.7
v 2.3 5.8 -1.7
v 2.4 2.1 -1.7
v 2.4 2.2 -1.7
v 1.5 2.1 -1.8
v 1.5 2.2 -1.8
v 1.5 5.4 -1.8
v 1.5 5.6 -1.8
v 1.6 2.1 -1.8
v 1.6 2.2 -1.8
v 1.6 5.3 -1.8
v 1.6 5.4 -1.8
v 1.6 5.6 -1.8
v 1.6 5.7 -1.8
v 1.7 2.1 -1.8
v 1.7 2.2 -1.8
v 1.7 4.5 -1.8
v 1.7 4.6 -1.8
v 1.7 5.2 -1.8
v 1.7 5.3 -1.8
v 1.7 5.4 -1.8
v 1.7 5.5 -1.8
v 1.7 5.6 -1.8
v 1.7 5.7 -1.8
v 1.7 5.8 -1.8
v 1.7 5.9 -1.8
v 1.8 2.1 -1.8
v 1.8 2.2 -1.8
v 1.8 5 -1.8
v 1.8 5.2 -1.8
v 1.8 5.4 -1.8
v 1.8 5.5 -1.8
v 1.8 5.6 -1.8
v 1.8 5.7 -1.8
v 1.9 4.5 -1.8
v 1.9 4.6 -1.8
v 1.9 5.1 -1.8
v 1.9 5.2 -1.8
v 1.9 5.3 -1.8
v 1.9 5.4 -1.8
v 1.9 5.5 -1.8
v 2.1 4.5 -1.8
v 2.1 4.6 -1.8
v 2.1 5.1 -1.8
v 2.1 5.2 -1.8
v 2.1 5.3 -1.8
v 2.1 5.4 -1.8
v 2.1 5.5 -1.8
v 2.2 2.1 -1.8
v 2.2 2.2 -1.8
v 2.2 5 -1.8
v 2.2 5.2 -1.8
v 2.2 5.4 -1.8
v 2.2 5.5 -1.8
v 2.2 5.6 -1.8
v 2.2 5.7 -1.8
v 2.3 2.1 -1.8
v 2.3 2.2 -1.8
v 2.3 4.5 -1.8
v 2.3 4.6 -1.8
v 2.3 5.2 -1.8
v 2.3 5.3 -1.8
v 2.3 5.4 -1.8
v 2.3 5.5 -1.8
v 2.3 5.6 -1.8
v 2.3 5.8 -1.8
v 2.3 5.9 -1.8
v 2.4 2.1 -1.8
v 2.4 2.2 -1.8
v 2.4 5.2 -1.8
v 2.4 5.3 -1.8
v 2.4 5.4 -1.8
v 2.4 5.6 -1.8
v 2.4 5.8 -1.8
v 2.5 2.1 -1.8
v 2.5 2.2 -1.8
v 2.5 5.4 -1.8
v 2.5 5.6 -1.8
v 1.2 3.5 -1.9
v 1.2 3.6 -1.9
v 1.3 3.5 -1.9
v 1.3 3.6 -1.9
v 1.5 2.2 -1.9
v 1.5 2.3 -1.9
v 1.5 4.5 -1.9
v 1.5 4.7 -1.9
v 1.5 5.3 -1.9
v 1.5 5.4 -1.9
v 1.5 5.6 -1.9
v 1.5 5.7 -1.9
v 1.6 2.2 -1.9
v 1.6 2.3 -1.9
v 1.6 2.6 -1.9
v 1.6 2.8 -1.9
v 1.6 4.4 -1.9
v 1.6 4.5 -1.9
v 1.6 4.7 -1.9
v 1.6 4.8 -1.9
v 1.6 5.3 -1.9
v 1.6 5.4 -1.9
v 1.6 5.6 -1.9
v 1.6 5.7 -1.9
v 1.7 2.2 -1.9
v 1.7 2.3 -1.9
v 1.7 2.6 -1.9
v 1.7 2.8 -1.9
v 1.7 3.2 -1.9
v 1.7 3.4 -1.9
v 1.7 3.6 -1.9
v 1.7 3.7 -1.9
v 1.7 3.8 -1.9
v 1.7 4 -1.9
v 1.7 4.2 -1.9
v 1.7 4.4 -1.9
v 1.7 4.5 -1.9
v 1.7 4.6 -1.9
v 1.7 5.1 -1.9
v 1.7 5.2 -1.9
v 1.8 3.2 -1.9
v 1.8 3.4 -1.9
v 1.8 3.5 -1.9
v 1.8 3.6 -1.9
v 1.8 3.7 -1.9
v 1.8 3.8 -1.9
v 1.8 4 -1.9
v 1.8 4.2 -1.9
v 1.8 4.8 -1.9
v 1.8 4.9 -1.9
v 1.8 5.1 -1.9
v 1.8 5.2 -1.9
v 1.8 5.4 -1.9
v 1.8 5.5 -1.9
v 1.9 4.5 -1.9
v 1.9 4.6 -1.9
v 1.9 4.9 -1.9
v 1.9 5 -1.9
v 1.9 5.4 -1.9
v 1.9 5.5 -1.9
v 2.1 4.5 -1.9
v 2.1 4.6 -1.9
v 2.1 4.9 -1.9
v 2.1 5 -1.9
v 2.1 5.4 -1.9
v 2.1 5.5 -1.9
v 2.2 3.2 -1.9
v 2.2 3.4 -1.9
v 2.2 3.5 -1.9
v 2.2 3.6 -1.9
v 2.2 3.7 -1.9
v 2.2 3.8 -1.9
v 2.2 4 -1.9
v 2.2 4.2 -1.9
v 2.2 4.8 -1.9
v 2.2 4.9 -1.9
v 2.2 5.1 -1.9
v 2.2 5.2 -1.9
v 2.2 5.4 -1.9
v 2.2 5.5 -1.9
v 2.3 2.2 -1.9
v 2.3 2.3 -1.9
v 2.3 2.6 -1.9
v 2.3 2.8 -1.9
v 2.3 3.2 -1.9
v 2.3 3.4 -1.9
v 2.3 3.6 -1.9
v 2.3 3.7 -1.9
v 2.3 3.8 -1.9
v 2.3 4 -1.9
v 2.3 4.2 -1.9
v 2.3 4.4 -1.9
v 2.3 4.5 -1.9
v 2.3 4.6 -1.9
v 2.3 5.1 -1.9
v 2.3 5.2 -1.9
v 2.4 2.2 -1.9
v 2.4 2.3 -1.9
v 2.4 2.6 -1.9
v 2.4 2.8 -1.9
v 2.4 4.4 -1.9
v 2.4 4.5 -1.9
v 2.4 4.7 -1.9
v 2.4 4.8 -1.9
v 2.4 5.1 -1.9
v 2.4 5.2 -1.9
v 2.4 5.3 -1.9
v 2.4 5.4 -1.9
v 2.5 2.2 -1.9
v 2.5 2.3 -1.9
v 2.5 4.5 -1.9
v 2.5 4.7 -1.9
v 2.5 5.3 -1.9
v 2.5 5.4 -1.9
v 2.7 3.5 -1.9
v 2.7 3.6 -1.9
v 2.8 3.5 -1.9
v 2.8 3.6 -1.9
v 1.1 3.4 -2
v 1.1 3.6 -2
v 1.2 3.4 -2
v 1.2 3.5 -2
v 1.2 3.6 -2
v 1.2 3.7 -2
v 1.2 3.8 -2
v 1.2 4.4 -2
v 1.3 3.6 -2
v 1.3 3.7 -2
v 1.3 3.8 -2
v 1.3 3.9 -2
v 1.3 4.4 -2
v 1.3 4.6 -2
v 1.4 3.9 -2
v 1.4 4.4 -2
v 1.4 4.6 -2
v 1.4 4.7 -2
v 1.5 2.3 -2
v 1.5 2.4 -2
v 1.5 2.8 -2
v 1.5 2.9 -2
v 1.5 4.5 -2
v 1.5 4.7 -2
v 1.5 4.8 -2
v 1.6 2.3 -2
v 1.6 2.4 -2
v 1.6 2.5 -2
v 1.6 2.6 -2
v 1.6 2.8 -2
v 1.6 2.9 -2
v 1.6 3.6 -2
v 1.6 3.7 -2
v 1.6 3.9 -2
v 1.6 4.2 -2
v 1.6 4.4 -2
v 1.6 4.5 -2
v 1.6 4.7 -2
v 1.6 4.8 -2
v 1.6 5.2 -2
v 1.6 5.3 -2
v 1.6 5.7 -2
v 1.6 5.8 -2
v 1.7 2.2 -2
v 1.7 2.3 -2
v 1.7 2.4 -2
v 1.7 2.5 -2
v 1.7 2.6 -2
v 1.7 2.8 -2
v 1.7 3 -2
v 1.7 3.2 -2
v 1.7 3.4 -2
v 1.7 3.6 -2
v 1.7 3.7 -2
v 1.7 3.8 -2
v 1.7 3.9 -2
v 1.7 4 -2
v 1.7 4.2 -2
v 1.7 4.4 -2
v 1.7 4.8 -2
v 1.7 4.9 -2
v 1.7 5.2 -2
v 1.7 5.3 -2
v 1.7 5.7 -2
v 1.7 5.8 -2
v 1.8 2.2 -2
v 1.8 2.4 -2
v 1.8 2.6 -2
v 1.8 2.8 -2
v 1.8 3 -2
v 1.8 3.2 -2
v 1.8 3.3 -2
v 1.8 3.4 -2
v 1.8 3.5 -2
v 1.8 3.6 -2
v 1.8 3.7 -2
v 1.8 3.8 -2
v 1.8 4 -2
v 1.8 4.2 -2
v 1.8 4.8 -2
v 1.8 4.9 -2
v 1.8 5 -2
v 1.8 5.1 -2
v 1.8 5.2 -2
v 1.8 5.3 -2
v 1.9 3.3 -2
v 1.9 3.4 -2
v 1.9 4.9 -2
v 1.9 5 -2
v 1.9 5.1 -2
v 1.9 5.2 -2
v 2.1 3.3 -2
v 2.1 3.4 -2
v 2.1 4.9 -2
v 2.1 5 -2
v 2.1 5.1 -2
v 2.1 5.2 -2
v 2.2 2.2 -2
v 2.2 2.3 -2
v 2.2 2.6 -2
v 2.2 2.8 -2
v 2.2 3 -2
v 2.2 3.2 -2
v 2.2 3.3 -2
v 2.2 3.4 -2
v 2.2 3.5 -2
v 2.2 3.6 -2
v 2.2 3.7 -2
v 2.2 3.8 -2
v 2.2 4 -2
v 2.2 4.2 -2
v 2.2 4.8 -2
v 2.2 4.9 -2
v 2.2 5 -2
v 2.2 5.1 -2
v 2.2 5.2 -2
v 2.2 5.3 -2
v 2.3 2.2 -2
v 2.3 2.3 -2
v 2.3 2.4 -2
v 2.3 2.5 -2
v 2.3 2.6 -2
v 2.3 2.8 -2
v 2.3 3 -2
v 2.3 3.2 -2
v 2.3 3.4 -2
v 2.3 3.6 -2
v 2.3 3.7 -2
v 2.3 3.8 -2
v 2.3 3.9 -2
v 2.3 4 -2
v 2.3 4.2 -2
v 2.3 4.3 -2
v 2.3 4.4 -2
v 2.3 4.8 -2
v 2.3 4.9 -2
v 2.3 5.2 -2
v 2.3 5.3 -2
v 2.4 2.3 -2
v 2.4 2.4 -2
v 2.4 2.5 -2
v 2.4 2.6 -2
v 2.4 2.8 -2
v 2.4 2.9 -2
v 2.4 3.6 -2
v 2.4 3.7 -2
v 2.4 3.9 -2
v 2.4 4.3 -2
v 2.4 4.4 -2
v 2.4 4.5 -2
v 2.4 4.7 -2
v 2.4 4.8 -2
v 2.5 2.8 -2
v 2.5 2.9 -2
v 2.5 4.5 -2
v 2.5 4.7 -2
v 2.5 4.8 -2
v 2.6 4.6 -2
v 2.6 4.7 -2
v 2.7 3.6 -2
v 2.7 3.7 -2
v 2.7 3.8 -2
v 2.7 4.3 -2
v 2.7 4.4 -2
v 2.7 4.6 -2
v 2.8 3.4 -2
v 2.8 3.5 -2
v 2.8 3.6 -2
v 2.8 3.7 -2
v 2.8 3.8 -2
v 2.8 4.3 -2
v 2.9 3.4 -2
v 2.9 3.6 -2
v 1.2 3.3 -2.1
v 1.2 3.4 -2.1
v 1.2 3.6 -2.1
v 1.2 3.7 -2.1
v 1.2 3.8 -2.1
v 1.3 3.3 -2.1
v 1.3 3.6 -2.1
v 1.3 3.7 -2.1
v 1.3 3.8 -2.1
v 1.4 4.3 -2.1
v 1.4 4.4 -2.1
v 1.5 2.9 -2.1
v 1.5 3.6 -2.1
v 1.5 4.3 -2.1
v 1.5 4.4 -2.1
v 1.5 5.3 -2.1
v 1.5 5.4 -2.1
v 1.6 2.9 -2.1
v 1.6 3.6 -2.1
v 1.6 5.3 -2.1
v 1.6 5.4 -2.1
v 1.7 2.8 -2.1
v 1.7 2.9 -2.1
v 1.8 2.8 -2.1
v 1.8 2.9 -2.1
v 2.2 2.3 -2.1
v 2.2 2.4 -2.1
v 2.2 2.8 -2.1
v 2.2 2.9 -2.1
v 2.3 2.3 -2.1
v 2.3 2.4 -2.1
v 2.3 2.8 -2.1
v 2.3 2.9 -2.1
v 2.4 2.3 -2.1
v 2.4 2.4 -2.1
v 2.4 2.9 -2.1
v 2.4 3.6 -2.1
v 2.4 5.3 -2.1
v 2.4 5.4 -2.1
v 2.5 2.3 -2.1
v 2.5 2.4 -2.1
v 2.5 2.9 -2.1
v 2.5 3.6 -2.1
v 2.5 4.3 -2.1
v 2.5 4.4 -2.1
v 2.5 5.3 -2.1
v 2.5 5.4 -2.1
v 2.6 3.9 -2.1
v 2.6 4.3 -2.1
v 2.7 3.3 -2.1
v 2.7 3.6 -2.1
v 2.7 3.7 -2.1
v 2.7 3.8 -2.1
v 2.7 3.9 -2.1
v 2.7 4.3 -2.1
v 2.7 4.4 -2.1
v 2.7 4.5 -2.1
v 2.8 3.3 -2.1
v 2.8 3.4 -2.1
v 2.8 3.6 -2.1
v 2.8 3.7 -2.1
v 2.8 3.8 -2.1
v 2.8 4.3 -2.1
v 2.8 4.5 -2.1
v 1.7 5.2 -1.9
v 1.7 5.3 -1.9
v 1.8 5.1 -1.9
v 1.8 5.2 -1.9
v 1.8 5.3 -1.9
v 1.9 5.1 -1.9
v 1.9 5.2 -1.9
v 2.1 5.1 -1.9
v 2.1 5.2 -1.9
v 2.2 5.1 -1.9
v 2.2 5.2 -1.9
v 2.2 5.3 -1.9
v 2.3 5.2 -1.9
v 2.3 5.3 -1.9
v 1.2 3.5 -2
v 1.2 3.6 -2
v 1.3 3.5 -2
v 1.3 3.6 -2
v 1.5 5.3 -2
v 1.5 5.4 -2
v 1.5 5.6 -2
v 1.5 5.7 -2
v 1.6 5.3 -2
v 1.6 5.4 -2
v 1.6 5.6 -2
v 1.6 5.7 -2
v 2.3 5.1 -2
v 2.3 5.2 -2
v 2.4 5.1 -2
v 2.4 5.2 -2
v 2.4 5.3 -2
v 2.4 5.4 -2
v 2.4 5.5 -2
v 2.4 5.6 -2
v 2.5 5.3 -2
v 2.5 5.4 -2
v 2.5 5.5 -2
v 2.5 5.6 -2
v 2.7 3.5 -2
v 2.7 3.6 -2
v 2.8 3.5 -2
v 2.8 3.6 -2
v 1.1 3.4 -2.1
v 1.1 3.5 -2.1
v 1.2 3.4 -2.1
v 1.2 3.5 -2.1
v 1.3 3.9 -2.1
v 1.3 4.1 -2.1
v 1.4 3.9 -2.1
v 1.4 4.1 -2.1
v 1.4 4.4 -2.1
v 1.4 4.5 -2.1
v 1.5 2.2 -2.1
v 1.5 2.3 -2.1
v 1.5 4.4 -2.1
v 1.5 4.5 -2.1
v 1.5 5.4 -2.1
v 1.5 5.6 -2.1
v 1.6 2.2 -2.1
v 1.6 2.3 -2.1
v 1.6 3.8 -2.1
v 1.6 3.9 -2.1
v 1.6 5.4 -2.1
v 1.6 5.6 -2.1
v 1.7 2.3 -2.1
v 1.7 2.4 -2.1
v 1.7 2.6 -2.1
v 1.7 2.8 -2.1
v 1.7 3 -2.1
v 1.7 3.1 -2.1
v 1.7 3.8 -2.1
v 1.7 3.9 -2.1
v 1.7 4.8 -2.1
v 1.7 4.9 -2.1
v 1.8 2.3 -2.1
v 1.8 2.4 -2.1
v 1.8 2.6 -2.1
v 1.8 2.8 -2.1
v 1.8 3 -2.1
v 1.8 3.1 -2.1
v 1.8 4.8 -2.1
v 1.8 4.9 -2.1
v 1.8 5.1 -2.1
v 1.9 4.9 -2.1
v 1.9 5.1 -2.1
v 2.1 4.9 -2.1
v 2.1 5.1 -2.1
v 2.2 2.6 -2.1
v 2.2 2.8 -2.1
v 2.2 3 -2.1
v 2.2 3.1 -2.1
v 2.2 4.8 -2.1
v 2.2 4.9 -2.1
v 2.2 5.1 -2.1
v 2.3 2.6 -2.1
v 2.3 2.8 -2.1
v 2.3 3 -2.1
v 2.3 3.1 -2.1
v 2.3 3.8 -2.1
v 2.3 3.9 -2.1
v 2.3 4.8 -2.1
v 2.3 4.9 -2.1
v 2.4 2.2 -2.1
v 2.4 2.3 -2.1
v 2.4 3.8 -2.1
v 2.4 3.9 -2.1
v 2.4 5.4 -2.1
v 2.4 5.5 -2.1
v 2.5 2.2 -2.1
v 2.5 2.3 -2.1
v 2.5 4.4 -2.1
v 2.5 4.5 -2.1
v 2.5 5.4 -2.1
v 2.5 5.5 -2.1
v 2.6 4.4 -2.1
v 2.6 4.5 -2.1
v 2.8 3.4 -2.1
v 2.8 3.5 -2.1
v 2.9 3.4 -2.1
v 2.9 3.5 -2.1
v 1.1 3.5 -2.2
v 1.1 3.6 -2.2
v 1.2 3.3 -2.2
v 1.2 3.5 -2.2
v 1.2 3.6 -2.2
v 1.2 3.7 -2.2
v 1.2 4.4 -2.2
v 1.3 3.3 -2.2
v 1.3 3.5 -2.2
v 1.3 3.6 -2.2
v 1.3 3.7 -2.2
v 1.3 4.1 -2.2
v 1.3 4.3 -2.2
v 1.3 4.4 -2.2
v 1.3 4.6 -2.2
v 1.4 4.3 -2.2
v 1.4 4.4 -2.2
v 1.4 4.5 -2.2
v 1.4 4.6 -2.2
v 1.4 4.7 -2.2
v 1.5 2.1 -2.2
v 1.5 2.2 -2.2
v 1.5 2.3 -2.2
v 1.5 2.4 -2.2
v 1.5 2.8 -2.2
v 1.5 3.6 -2.2
v 1.5 4.3 -2.2
v 1.5 4.4 -2.2
v 1.5 4.5 -2.2
v 1.5 4.7 -2.2
v 1.5 4.8 -2.2
v 1.5 5.3 -2.2
v 1.5 5.4 -2.2
v 1.6 2.2 -2.2
v 1.6 2.3 -2.2
v 1.6 2.4 -2.2
v 1.6 2.8 -2.2
v 1.6 3.1 -2.2
v 1.6 3.6 -2.2
v 1.6 3.7 -2.2
v 1.6 3.8 -2.2
v 1.6 4.2 -2.2
v 1.6 4.3 -2.2
v 1.6 4.4 -2.2
v 1.6 4.5 -2.2
v 1.6 5.3 -2.2
v 1.6 5.4 -2.2
v 1.6 5.5 -2.2
v 1.6 5.8 -2.2
v 1.7 2.3 -2.2
v 1.7 2.4 -2.2
v 1.7 2.8 -2.2
v 1.7 2.9 -2.2
v 1.7 3.1 -2.2
v 1.7 3.2 -2.2
v 1.7 3.6 -2.2
v 1.7 3.7 -2.2
v 1.7 3.8 -2.2
v 1.7 4 -2.2
v 1.7 4.2 -2.2
v 1.7 4.3 -2.2
v 1.7 4.7 -2.2
v 1.7 4.8 -2.2
v 1.7 5.5 -2.2
v 1.7 5.8 -2.2
v 1.7 5.9 -2.2
v 1.8 2.1 -2.2
v 1.8 2.3 -2.2
v 1.8 2.8 -2.2
v 1.8 2.9 -2.2
v 1.8 3.1 -2.2
v 1.8 3.2 -2.2
v 1.8 3.6 -2.2
v 1.8 3.7 -2.2
v 1.8 3.8 -2.2
v 1.8 4 -2.2
v 1.8 5.8 -2.2
v 1.8 5.9 -2.2
v 1.9 3.5 -2.2
v 1.9 3.6 -2.2
v 1.9 3.7 -2.2
v 1.9 3.8 -2.2
v 1.9 4.9 -2.2
v 1.9 5 -2.2
v 2.1 3.5 -2.2
v 2.1 3.6 -2.2
v 2.1 3.7 -2.2
v 2.1 3.8 -2.2
v 2.1 4.9 -2.2
v 2.1 5 -2.2
v 2.2 2.1 -2.2
v 2.2 2.4 -2.2
v 2.2 2.8 -2.2
v 2.2 2.9 -2.2
v 2.2 3.1 -2.2
v 2.2 3.2 -2.2
v 2.2 3.6 -2.2
v 2.2 3.7 -2.2
v 2.2 3.8 -2.2
v 2.2 4.4 -2.2
v 2.2 5.8 -2.2
v 2.2 5.9 -2.2
v 2.3 2.4 -2.2
v 2.3 2.8 -2.2
v 2.3 2.9 -2.2
v 2.3 3.1 -2.2
v 2.3 3.2 -2.2
v 2.3 3.6 -2.2
v 2.3 3.7 -2.2
v 2.3 3.8 -2.2
v 2.3 4.3 -2.2
v 2.3 4.4 -2.2
v 2.3 4.5 -2.2
v 2.3 4.7 -2.2
v 2.3 4.8 -2.2
v 2.3 5.6 -2.2
v 2.3 5.8 -2.2
v 2.3 5.9 -2.2
v 2.4 2.2 -2.2
v 2.4 2.3 -2.2
v 2.4 2.4 -2.2
v 2.4 2.8 -2.2
v 2.4 3.1 -2.2
v 2.4 3.6 -2.2
v 2.4 3.7 -2.2
v 2.4 3.8 -2.2
v 2.4 4.4 -2.2
v 2.4 4.5 -2.2
v 2.4 4.7 -2.2
v 2.4 5.3 -2.2
v 2.4 5.4 -2.2
v 2.4 5.6 -2.2
v 2.4 5.8 -2.2
v 2.5 2.1 -2.2
v 2.5 2.2 -2.2
v 2.5 2.3 -2.2
v 2.5 2.4 -2.2
v 2.5 2.8 -2.2
v 2.5 3.6 -2.2
v 2.5 4.3 -2.2
v 2.5 4.4 -2.2
v 2.5 4.5 -2.2
v 2.5 4.7 -2.2
v 2.5 4.8 -2.2
v 2.5 5.3 -2.2
v 2.5 5.4 -2.2
v 2.6 3.9 -2.2
v 2.6 4.3 -2.2
v 2.6 4.4 -2.2
v 2.6 4.5 -2.2
v 2.6 4.6 -2.2
v 2.6 4.7 -2.2
v 2.7 3.3 -2.2
v 2.7 3.5 -2.2
v 2.7 3.6 -2.2
v 2.7 3.7 -2.2
v 2.7 3.8 -2.2
v 2.7 3.9 -2.2
v 2.7 4.4 -2.2
v 2.7 4.5 -2.2
v 2.7 4.6 -2.2
v 2.8 3.3 -2.2
v 2.8 3.5 -2.2
v 2.8 3.6 -2.2
v 2.8 3.7 -2.2
v 2.8 3.8 -2.2
v 2.8 4.4 -2.2
v 2.8 4.5 -2.2
v 2.9 3.5 -2.2
v 2.9 3.6 -2.2
v 1.2 3.5 -2.3
v 1.2 3.6 -2.3
v 1.3 3.5 -2.3
v 1.3 3.6 -2.3
v 1.3 4.1 -2.3
v 1.3 4.3 -2.3
v 1.4 4.1 -2.3
v 1.4 4.3 -2.3
v 1.5 4.5 -2.3
v 1.5 4.7 -2.3
v 1.6 3.1 -2.3
v 1.6 3.6 -2.3
v 1.6 4.3 -2.3
v 1.6 4.5 -2.3
v 1.6 5.2 -2.3
v 1.6 5.5 -2.3
v 1.7 3.1 -2.3
v 1.7 3.2 -2.3
v 1.7 3.3 -2.3
v 1.7 3.4 -2.3
v 1.7 3.6 -2.3
v 1.7 3.7 -2.3
v 1.7 4 -2.3
v 1.7 4.3 -2.3
v 1.7 4.7 -2.3
v 1.7 4.8 -2.3
v 1.7 5.1 -2.3
v 1.7 5.2 -2.3
v 1.7 5.5 -2.3
v 1.7 5.6 -2.3
v 1.7 5.8 -2.3
v 1.8 3.2 -2.3
v 1.8 3.3 -2.3
v 1.8 3.4 -2.3
v 1.8 3.5 -2.3
v 1.8 3.6 -2.3
v 1.8 3.7 -2.3
v 1.8 3.8 -2.3
v 1.8 4 -2.3
v 1.8 4.8 -2.3
v 1.8 4.9 -2.3
v 1.8 5.1 -2.3
v 1.8 5.2 -2.3
v 1.8 5.6 -2.3
v 1.8 5.8 -2.3
v 1.8 5.9 -2.3
v 1.9 3.4 -2.3
v 1.9 3.5 -2.3
v 1.9 3.6 -2.3
v 1.9 3.7 -2.3
v 1.9 3.8 -2.3
v 1.9 5 -2.3
v 1.9 5.1 -2.3
v 2 5.8 -2.3
v 2 5.9 -2.3
v 2.1 3.4 -2.3
v 2.1 3.5 -2.3
v 2.1 3.6 -2.3
v 2.1 3.7 -2.3
v 2.1 3.8 -2.3
v 2.1 5 -2.3
v 2.1 5.1 -2.3
v 2.1 5.8 -2.3
v 2.1 5.9 -2.3
v 2.2 3.2 -2.3
v 2.2 3.3 -2.3
v 2.2 3.4 -2.3
v 2.2 3.5 -2.3
v 2.2 3.6 -2.3
v 2.2 3.7 -2.3
v 2.2 3.8 -2.3
v 2.2 4.4 -2.3
v 2.2 4.8 -2.3
v 2.2 4.9 -2.3
v 2.2 5.1 -2.3
v 2.2 5.2 -2.3
v 2.2 5.6 -2.3
v 2.2 5.8 -2.3
v 2.2 5.9 -2.3
v 2.3 3.1 -2.3
v 2.3 3.2 -2.3
v 2.3 3.3 -2.3
v 2.3 3.4 -2.3
v 2.3 3.6 -2.3
v 2.3 3.7 -2.3
v 2.3 4.3 -2.3
v 2.3 4.4 -2.3
v 2.3 4.5 -2.3
v 2.3 4.7 -2.3
v 2.3 4.8 -2.3
v 2.3 5.1 -2.3
v 2.3 5.2 -2.3
v 2.3 5.3 -2.3
v 2.3 5.6 -2.3
v 2.3 5.8 -2.3
v 2.4 3.1 -2.3
v 2.4 3.6 -2.3
v 2.4 4.3 -2.3
v 2.4 4.4 -2.3
v 2.4 4.5 -2.3
v 2.4 4.7 -2.3
v 2.4 5.3 -2.3
v 2.4 5.6 -2.3
v 2.7 3.5 -2.3
v 2.7 3.6 -2.3
v 2.7 3.8 -2.3
v 2.7 4.4 -2.3
v 2.8 3.5 -2.3
v 2.8 3.6 -2.3
v 2.8 3.8 -2.3
v 2.8 4.4 -2.3
v 1.7 3.3 -2.4
v 1.7 3.4 -2.4
v 1.7 5.2 -2.4
v 1.7 5.6 -2.4
v 1.8 3.4 -2.4
v 1.8 3.5 -2.4
v 1.8 5.2 -2.4
v 1.8 5.6 -2.4
v 1.8 5.8 -2.4
v 1.9 3.3 -2.4
v 1.9 3.5 -2.4
v 1.9 5.6 -2.4
v 1.9 5.7 -2.4
v 2 5.8 -2.4
v 2 5.9 -2.4
v 2.1 3.3 -2.4
v 2.1 3.5 -2.4
v 2.1 5.1 -2.4
v 2.1 5.2 -2.4
v 2.1 5.6 -2.4
v 2.1 5.7 -2.4
v 2.1 5.8 -2.4
v 2.1 5.9 -2.4
v 2.2 3.4 -2.4
v 2.2 3.5 -2.4
v 2.2 5.1 -2.4
v 2.2 5.2 -2.4
v 2.2 5.6 -2.4
v 2.2 5.8 -2.4
v 2.3 3.3 -2.4
v 2.3 3.4 -2.4
v 2.3 5.3 -2.4
v 2.3 5.6 -2.4
v 2.4 5.2 -2.4
v 2.4 5.3 -2.4
v 1.8 5.1 -2.5
v 1.8 5.6 -2.5
v 1.9 5.6 -2.5
v 1.9 5.7 -2.5
v 2.1 5.1 -2.5
v 2.1 5.2 -2.5
v 2.1 5.6 -2.5
v 2.1 5.7 -2.5
v 2.2 5.2 -2.5
v 2.2 5.6 -2.5
v 1.6 2.1 -1.7
v 1.7 2.1 -1.7
v 2.3 2.1 -1.7
v 2.4 2.1 -1.7
v 1.5 2.1 -1.8
v 1.6 2.1 -1.8
v 1.7 2.1 -1.8
v 1.8 2.1 -1.8
v 2.2 2.1 -1.8
v 2.3 2.1 -1.8
v 2.4 2.1 -1.8
v 2.5 2.1 -1.8
v 1.5 2.1 -1.9
v 1.6 2.1 -1.9
v 1.7 2.1 -1.9
v 1.8 2.1 -1.9
v 2.2 2.1 -1.9
v 2.3 2.1 -1.9
v 2.4 2.1 -1.9
v 2.5 2.1 -1.9
v 1.5 2.1 -2.2
v 1.8 2.1 -2.2
v 2.2 2.1 -2.2
v 2.5 2.1 -2.2
v 1.5 2.3 -2.1
v 1.6 2.3 -2.1
v 2.4 2.3 -2.1
v 2.5 2.3 -2.1
v 1.5 2.3 -2.2
v 1.6 2.3 -2.2
v 2.4 2.3 -2.2
v 2.5 2.3 -2.2
v 1.6 2.6 -1.9
v 1.7 2.6 -1.9
v 2.3 2.6 -1.9
v 2.4 2.6 -1.9
v 1.6 2.6 -2
v 1.7 2.6 -2
v 1.8 2.6 -2
v 2.2 2.6 -2
v 2.3 2.6 -2
v 2.4 2.6 -2
v 1.7 2.6 -2.1
v 1.8 2.6 -2.1
v 2.2 2.6 -2.1
v 2.3 2.6 -2.1
v 1.5 2.8 -2
v 1.6 2.8 -2
v 2.4 2.8 -2
v 2.5 2.8 -2
v 1.7 2.8 -2.1
v 1.8 2.8 -2.1
v 2.2 2.8 -2.1
v 2.3 2.8 -2.1
v 1.5 2.8 -2.2
v 1.6 2.8 -2.2
v 1.7 2.8 -2.2
v 1.8 2.8 -2.2
v 2.2 2.8 -2.2
v 2.3 2.8 -2.2
v 2.4 2.8 -2.2
v 2.5 2.8 -2.2
v 1.7 3 -2
v 1.8 3 -2
v 2.2 3 -2
v 2.3 3 -2
v 1.7 3 -2.1
v 1.8 3 -2.1
v 2.2 3 -2.1
v 2.3 3 -2.1
v 1.7 3.1 -2.1
v 1.8 3.1 -2.1
v 2.2 3.1 -2.1
v 2.3 3.1 -2.1
v 1.6 3.1 -2.2
v 1.7 3.1 -2.2
v 1.8 3.1 -2.2
v 2.2 3.1 -2.2
v 2.3 3.1 -2.2
v 2.4 3.1 -2.2
v 1.6 3.1 -2.3
v 1.7 3.1 -2.3
v 2.3 3.1 -2.3
v 2.4 3.1 -2.3
v 1.7 3.2 -1.9
v 1.8 3.2 -1.9
v 2.2 3.2 -1.9
v 2.3 3.2 -1.9
v 1.7 3.2 -2
v 1.8 3.2 -2
v 2.2 3.2 -2
v 2.3 3.2 -2
v 1.7 3.2 -2.2
v 1.8 3.2 -2.2
v 2.2 3.2 -2.2
v 2.3 3.2 -2.2
v 1.7 3.2 -2.3
v 1.8 3.2 -2.3
v 2.2 3.2 -2.3
v 2.3 3.2 -2.3
v 1.8 3.3 -2
v 1.9 3.3 -2
v 2.1 3.3 -2
v 2.2 3.3 -2
v 1.2 3.3 -2.1
v 1.3 3.3 -2.1
v 2.7 3.3 -2.1
v 2.8 3.3 -2.1
v 1.2 3.3 -2.2
v 1.3 3.3 -2.2
v 2.7 3.3 -2.2
v 2.8 3.3 -2.2
v 1.7 3.3 -2.3
v 1.8 3.3 -2.3
v 2.2 3.3 -2.3
v 2.3 3.3 -2.3
v 1.7 3.3 -2.4
v 1.9 3.3 -2.4
v 2.1 3.3 -2.4
v 2.3 3.3 -2.4
v 1.1 3.4 -2
v 1.2 3.4 -2
v 1.9 3.4 -2
v 2.1 3.4 -2
v 2.8 3.4 -2
v 2.9 3.4 -2
v 1.1 3.4 -2.1
v 1.2 3.4 -2.1
v 2.8 3.4 -2.1
v 2.9 3.4 -2.1
v 1.9 3.4 -2.3
v 2.1 3.4 -2.3
v 1.2 3.5 -1.9
v 1.3 3.5 -1.9
v 1.8 3.5 -1.9
v 2.2 3.5 -1.9
v 2.7 3.5 -1.9
v 2.8 3.5 -1.9
v 1.2 3.5 -2
v 1.3 3.5 -2
v 1.8 3.5 -2
v 2.2 3.5 -2
v 2.7 3.5 -2
v 2.8 3.5 -2
v 1.1 3.5 -2.1
v 1.2 3.5 -2.1
v 2.8 3.5 -2.1
v 2.9 3.5 -2.1
v 1.1 3.5 -2.2
v 1.2 3.5 -2.2
v 1.3 3.5 -2.2
v 2.7 3.5 -2.2
v 2.8 3.5 -2.2
v 2.9 3.5 -2.2
v 1.2 3.5 -2.3
v 1.3 3.5 -2.3
v 2.7 3.5 -2.3
v 2.8 3.5 -2.3
v 1.7 3.6 -1.9
v 1.8 3.6 -1.9
v 2.2 3.6 -1.9
v 2.3 3.6 -1.9
v 1.2 3.6 -2
v 1.3 3.6 -2
v 1.7 3.6 -2
v 1.8 3.6 -2
v 2.2 3.6 -2
v 2.3 3.6 -2
v 2.7 3.6 -2
v 2.8 3.6 -2
v 1.2 3.6 -2.1
v 1.3 3.6 -2.1
v 2.7 3.6 -2.1
v 2.8 3.6 -2.1
v 1.9 3.7 -2.2
v 2.1 3.7 -2.2
v 1.9 3.7 -2.3
v 2.1 3.7 -2.3
v 1.7 3.8 -1.9
v 1.8 3.8 -1.9
v 2.2 3.8 -1.9
v 2.3 3.8 -1.9
v 1.2 3.8 -2
v 1.3 3.8 -2
v 1.7 3.8 -2
v 1.8 3.8 -2
v 2.2 3.8 -2
v 2.3 3.8 -2
v 2.7 3.8 -2
v 2.8 3.8 -2
v 1.2 3.8 -2.1
v 1.3 3.8 -2.1
v 2.7 3.8 -2.1
v 2.8 3.8 -2.1
v 1.8 3.8 -2.2
v 1.9 3.8 -2.2
v 2.1 3.8 -2.2
v 2.2 3.8 -2.2
v 2.7 3.8 -2.2
v 2.8 3.8 -2.2
v 1.8 3.8 -2.3
v 1.9 3.8 -2.3
v 2.1 3.8 -2.3
v 2.2 3.8 -2.3
v 2.7 3.8 -2.3
v 2.8 3.8 -2.3
v 1.3 3.9 -2
v 1.4 3.9 -2
v 1.3 3.9 -2.1
v 1.4 3.9 -2.1
v 2.6 3.9 -2.1
v 2.7 3.9 -2.1
v 2.6 3.9 -2.2
v 2.7 3.9 -2.2
v 1.7 4 -2.2
v 1.8 4 -2.2
v 1.7 4 -2.3
v 1.8 4 -2.3
v 1.3 4.1 -2.1
v 1.4 4.1 -2.1
v 1.3 4.1 -2.2
v 1.3 4.1 -2.3
v 1.4 4.1 -2.3
v 1.7 4.2 -1.9
v 1.8 4.2 -1.9
v 2.2 4.2 -1.9
v 2.3 4.2 -1.9
v 1.6 4.2 -2
v 1.7 4.2 -2
v 1.8 4.2 -2
v 2.2 4.2 -2
v 2.3 4.2 -2
v 1.6 4.2 -2.2
v 1.7 4.2 -2.2
v 2.3 4.3 -2
v 2.4 4.3 -2
v 1.4 4.3 -2.1
v 1.5 4.3 -2.1
v 2.5 4.3 -2.1
v 2.6 4.3 -2.1
v 1.4 4.3 -2.2
v 1.5 4.3 -2.2
v 1.6 4.3 -2.2
v 1.7 4.3 -2.2
v 2.3 4.3 -2.2
v 2.5 4.3 -2.2
v 2.6 4.3 -2.2
v 1.6 4.3 -2.3
v 1.7 4.3 -2.3
v 2.3 4.3 -2.3
v 2.4 4.3 -2.3
v 1.6 4.4 -1.9
v 1.7 4.4 -1.9
v 2.3 4.4 -1.9
v 2.4 4.4 -1.9
v 1.4 4.4 -2
v 1.6 4.4 -2
v 1.7 4.4 -2
v 2.3 4.4 -2
v 2.4 4.4 -2
v 2.7 4.4 -2
v 1.4 4.4 -2.1
v 1.5 4.4 -2.1
v 2.5 4.4 -2.1
v 2.7 4.4 -2.1
v 1.5 4.4 -2.2
v 1.6 4.4 -2.2
v 2.2 4.4 -2.2
v 2.3 4.4 -2.2
v 2.4 4.4 -2.2
v 2.5 4.4 -2.2
v 2.2 4.4 -2.3
v 2.3 4.4 -2.3
v 1.7 4.5 -1.8
v 1.9 4.5 -1.8
v 2.1 4.5 -1.8
v 2.3 4.5 -1.8
v 1.5 4.5 -1.9
v 1.6 4.5 -1.9
v 1.7 4.5 -1.9
v 1.9 4.5 -1.9
v 2.1 4.5 -1.9
v 2.3 4.5 -1.9
v 2.4 4.5 -1.9
v 2.5 4.5 -1.9
v 1.5 4.5 -2
v 1.6 4.5 -2
v 2.4 4.5 -2
v 2.5 4.5 -2
v 1.4 4.5 -2.1
v 1.5 4.5 -2.1
v 2.5 4.5 -2.1
v 2.6 4.5 -2.1
v 1.4 4.5 -2.2
v 1.5 4.5 -2.2
v 1.6 4.5 -2.2
v 2.3 4.5 -2.2
v 2.4 4.5 -2.2
v 2.5 4.5 -2.2
v 2.6 4.5 -2.2
v 1.5 4.5 -2.3
v 1.6 4.5 -2.3
v 2.3 4.5 -2.3
v 2.4 4.5 -2.3
v 1.8 5 -1.8
v 2.2 5 -1.8
v 1.9 5 -1.9
v 2.1 5 -1.9
v 1.8 5 -2
v 1.9 5 -2
v 2.1 5 -2
v 2.2 5 -2
v 1.9 5 -2.2
v 2.1 5 -2.2
v 1.9 5 -2.3
v 2.1 5 -2.3
v 1.7 5.1 -1.9
v 1.8 5.1 -1.9
v 2.2 5.1 -1.9
v 2.3 5.1 -1.9
v 2.4 5.1 -1.9
v 1.7 5.1 -2
v 1.8 5.1 -2
v 2.2 5.1 -2
v 2.3 5.1 -2
v 2.4 5.1 -2
v 1.8 5.1 -2.1
v 1.9 5.1 -2.1
v 2.1 5.1 -2.1
v 2.2 5.1 -2.1
v 1.8 5.1 -2.2
v 1.9 5.1 -2.2
v 2.1 5.1 -2.2
v 2.2 5.1 -2.2
v 1.7 5.1 -2.3
v 1.8 5.1 -2.3
v 1.9 5.1 -2.3
v 2.1 5.1 -2.3
v 2.2 5.1 -2.3
v 2.3 5.1 -2.3
v 1.9 5.1 -2.4
v 2.1 5.1 -2.4
v 2.2 5.1 -2.4
v 1.8 5.1 -2.5
v 2.1 5.1 -2.5
v 1.7 5.2 -1.8
v 1.8 5.2 -1.8
v 2.2 5.2 -1.8
v 2.3 5.2 -1.8
v 2.4 5.2 -1.8
v 1.7 5.2 -1.9
v 1.8 5.2 -1.9
v 1.9 5.2 -1.9
v 2.1 5.2 -1.9
v 2.2 5.2 -1.9
v 2.3 5.2 -1.9
v 2.4 5.2 -1.9
v 1.6 5.2 -2
v 1.7 5.2 -2
v 1.8 5.2 -2
v 1.9 5.2 -2
v 2.1 5.2 -2
v 2.2 5.2 -2
v 2.3 5.2 -2
v 2.4 5.2 -2
v 1.6 5.2 -2.3
v 1.7 5.2 -2.3
v 1.8 5.2 -2.3
v 2.2 5.2 -2.3
v 2.3 5.2 -2.3
v 1.7 5.2 -2.4
v 1.8 5.2 -2.4
v 2.1 5.2 -2.4
v 2.2 5.2 -2.4
v 2.4 5.2 -2.4
v 2.1 5.2 -2.5
v 2.2 5.2 -2.5
v 1.9 5.3 -1.7
v 2.1 5.3 -1.7
v 1.6 5.3 -1.8
v 1.7 5.3 -1.8
v 1.9 5.3 -1.8
v 2.1 5.3 -1.8
v 1.5 5.3 -1.9
v 1.6 5.3 -1.9
v 1.7 5.3 -1.9
v 1.8 5.3 -1.9
v 2.2 5.3 -1.9
v 2.3 5.3 -1.9
v 2.4 5.3 -1.9
v 2.5 5.3 -1.9
v 1.5 5.3 -2
v 1.6 5.3 -2
v 1.7 5.3 -2
v 1.8 5.3 -2
v 2.2 5.3 -2
v 2.3 5.3 -2
v 2.4 5.3 -2
v 2.5 5.3 -2
v 1.5 5.3 -2.1
v 1.6 5.3 -2.1
v 2.4 5.3 -2.1
v 2.5 5.3 -2.1
v 1.5 5.3 -2.2
v 1.6 5.3 -2.2
v 2.4 5.3 -2.2
v 2.5 5.3 -2.2
v 1.5 5.4 -1.8
v 1.6 5.4 -1.8
v 2.4 5.4 -1.8
v 2.5 5.4 -1.8
v 1.5 5.4 -1.9
v 1.6 5.4 -1.9
v 2.4 5.4 -1.9
v 2.5 5.4 -1.9
v 1.5 5.4 -2
v 1.6 5.4 -2
v 2.4 5.4 -2
v 2.5 5.4 -2
v 1.5 5.4 -2.1
v 1.6 5.4 -2.1
v 2.4 5.4 -2.1
v 2.5 5.4 -2.1
v 1.8 5.5 -1.8
v 1.9 5.5 -1.8
v 2.1 5.5 -1.8
v 2.2 5.5 -1.8
v 1.8 5.5 -1.9
v 1.9 5.5 -1.9
v 2.1 5.5 -1.9
v 2.2 5.5 -1.9
v 1.7 5.6 -1.7
v 1.8 5.6 -1.7
v 2.2 5.6 -1.7
v 2.3 5.6 -1.7
v 1.7 5.6 -1.8
v 1.8 5.6 -1.8
v 2.2 5.6 -1.8
v 2.3 5.6 -1.8
v 1.8 5.7 -1.7
v 2.2 5.7 -1.7
v 1.8 5.7 -1.8
v 2.2 5.7 -1.8
v 1.6 2.2 -1.7
v 1.7 2.2 -1.7
v 2.3 2.2 -1.7
v 2.4 2.2 -1.7
v 1.5 2.2 -1.8
v 1.6 2.2 -1.8
v 1.7 2.2 -1.8
v 1.8 2.2 -1.8
v 2.2 2.2 -1.8
v 2.3 2.2 -1.8
v 2.4 2.2 -1.8
v 2.5 2.2 -1.8
v 1.5 2.2 -1.9
v 1.6 2.2 -1.9
v 1.7 2.2 -1.9
v 1.8 2.2 -1.9
v 2.2 2.2 -1.9
v 2.3 2.2 -1.9
v 2.4 2.2 -1.9
v 2.5 2.2 -1.9
v 1.7 2.2 -2
v 1.8 2.2 -2
v 2.2 2.2 -2
v 2.3 2.2 -2
v 1.5 2.2 -2.1
v 1.6 2.2 -2.1
v 2.4 2.2 -2.1
v 2.5 2.2 -2.1
v 1.5 2.2 -2.2
v 1.6 2.2 -2.2
v 2.4 2.2 -2.2
v 2.5 2.2 -2.2
v 1.5 2.3 -1.9
v 1.6 2.3 -1.9
v 1.7 2.3 -1.9
v 2.3 2.3 -1.9
v 2.4 2.3 -1.9
v 2.5 2.3 -1.9
v 1.5 2.3 -2
v 1.6 2.3 -2
v 1.7 2.3 -2
v 2.2 2.3 -2
v 2.3 2.3 -2
v 2.4 2.3 -2
v 1.7 2.3 -2.1
v 1.8 2.3 -2.1
v 2.2 2.3 -2.1
v 2.3 2.3 -2.1
v 2.4 2.3 -2.1
v 2.5 2.3 -2.1
v 1.7 2.3 -2.2
v 1.8 2.3 -2.2
v 1.5 2.4 -2
v 1.6 2.4 -2
v 1.7 2.4 -2
v 1.8 2.4 -2
v 1.6 2.4 -2.1
v 1.7 2.4 -2.1
v 1.8 2.4 -2.1
v 2.2 2.4 -2.1
v 2.3 2.4 -2.1
v 2.4 2.4 -2.1
v 2.5 2.4 -2.1
v 1.5 2.4 -2.2
v 1.6 2.4 -2.2
v 2.2 2.4 -2.2
v 2.3 2.4 -2.2
v 2.4 2.4 -2.2
v 2.5 2.4 -2.2
v 1.6 2.8 -1.9
v 1.7 2.8 -1.9
v 2.3 2.8 -1.9
v 2.4 2.8 -1.9
v 1.6 2.8 -2
v 1.7 2.8 -2
v 1.8 2.8 -2
v 2.2 2.8 -2
v 2.3 2.8 -2
v 2.4 2.8 -2
v 1.7 2.8 -2.1
v 1.8 2.8 -2.1
v 2.2 2.8 -2.1
v 2.3 2.8 -2.1
v 1.5 2.9 -2
v 1.6 2.9 -2
v 2.4 2.9 -2
v 2.5 2.9 -2
v 1.5 2.9 -2.1
v 1.6 2.9 -2.1
v 1.7 2.9 -2.1
v 1.8 2.9 -2.1
v 2.2 2.9 -2.1
v 2.3 2.9 -2.1
v 2.4 2.9 -2.1
v 2.5 2.9 -2.1
v 1.7 2.9 -2.2
v 1.8 2.9 -2.2
v 2.2 2.9 -2.2
v 2.3 2.9 -2.2
v 1.7 3.4 -1.9
v 1.8 3.4 -1.9
v 2.2 3.4 -1.9
v 2.3 3.4 -1.9
v 1.7 3.4 -2
v 1.8 3.4 -2
v 2.2 3.4 -2
v 2.3 3.4 -2
v 1.7 3.4 -2.3
v 1.8 3.4 -2.3
v 2.2 3.4 -2.3
v 2.3 3.4 -2.3
v 1.7 3.4 -2.4
v 1.8 3.4 -2.4
v 2.2 3.4 -2.4
v 2.3 3.4 -2.4
v 1.9 3.5 -2.2
v 2.1 3.5 -2.2
v 1.8 3.5 -2.3
v 1.9 3.5 -2.3
v 2.1 3.5 -2.3
v 2.2 3.5 -2.3
v 1.8 3.5 -2.4
v 1.9 3.5 -2.4
v 2.1 3.5 -2.4
v 2.2 3.5 -2.4
v 1.2 3.6 -1.9
v 1.3 3.6 -1.9
v 2.7 3.6 -1.9
v 2.8 3.6 -1.9
v 1.1 3.6 -2
v 1.2 3.6 -2
v 1.3 3.6 -2
v 2.7 3.6 -2
v 2.8 3.6 -2
v 2.9 3.6 -2
v 1.5 3.6 -2.1
v 1.6 3.6 -2.1
v 2.4 3.6 -2.1
v 2.5 3.6 -2.1
v 1.1 3.6 -2.2
v 1.2 3.6 -2.2
v 1.3 3.6 -2.2
v 1.5 3.6 -2.2
v 1.6 3.6 -2.2
v 1.7 3.6 -2.2
v 1.8 3.6 -2.2
v 1.9 3.6 -2.2
v 2.1 3.6 -2.2
v 2.2 3.6 -2.2
v 2.3 3.6 -2.2
v 2.4 3.6 -2.2
v 2.5 3.6 -2.2
v 2.7 3.6 -2.2
v 2.8 3.6 -2.2
v 2.9 3.6 -2.2
v 1.2 3.6 -2.3
v 1.3 3.6 -2.3
v 1.6 3.6 -2.3
v 1.7 3.6 -2.3
v 1.8 3.6 -2.3
v 1.9 3.6 -2.3
v 2.1 3.6 -2.3
v 2.2 3.6 -2.3
v 2.3 3.6 -2.3
v 2.4 3.6 -2.3
v 2.7 3.6 -2.3
v 2.8 3.6 -2.3
v 1.7 3.7 -1.9
v 1.8 3.7 -1.9
v 2.2 3.7 -1.9
v 2.3 3.7 -1.9
v 1.2 3.7 -2
v 1.3 3.7 -2
v 1.7 3.7 -2
v 1.8 3.7 -2
v 2.2 3.7 -2
v 2.3 3.7 -2
v 2.7 3.7 -2
v 2.8 3.7 -2
v 1.2 3.7 -2.1
v 1.3 3.7 -2.1
v 2.7 3.7 -2.1
v 2.8 3.7 -2.1
v 1.7 3.7 -2.2
v 1.8 3.7 -2.2
v 2.2 3.7 -2.2
v 2.3 3.7 -2.2
v 1.7 3.7 -2.3
v 1.8 3.7 -2.3
v 2.2 3.7 -2.3
v 2.3 3.7 -2.3
v 1.6 3.8 -2.1
v 1.7 3.8 -2.1
v 2.3 3.8 -2.1
v 2.4 3.8 -2.1
v 1.6 3.8 -2.2
v 1.7 3.8 -2.2
v 2.3 3.8 -2.2
v 2.4 3.8 -2.2
v 1.6 3.9 -2
v 1.7 3.9 -2
v 2.3 3.9 -2
v 2.4 3.9 -2
v 1.6 3.9 -2.1
v 1.7 3.9 -2.1
v 2.3 3.9 -2.1
v 2.4 3.9 -2.1
v 1.7 4 -1.9
v 1.8 4 -1.9
v 2.2 4 -1.9
v 2.3 4 -1.9
v 1.7 4 -2
v 1.8 4 -2
v 2.2 4 -2
v 2.3 4 -2
v 2.7 4.3 -2
v 2.8 4.3 -2
v 2.7 4.3 -2.1
v 2.8 4.3 -2.1
v 1.3 4.3 -2.2
v 1.4 4.3 -2.2
v 1.3 4.3 -2.3
v 1.4 4.3 -2.3
v 1.2 4.4 -2
v 1.3 4.4 -2
v 1.4 4.4 -2.1
v 1.5 4.4 -2.1
v 2.5 4.4 -2.1
v 2.6 4.4 -2.1
v 1.2 4.4 -2.2
v 1.3 4.4 -2.2
v 1.4 4.4 -2.2
v 1.5 4.4 -2.2
v 2.3 4.4 -2.2
v 2.4 4.4 -2.2
v 2.5 4.4 -2.2
v 2.6 4.4 -2.2
v 2.7 4.4 -2.2
v 2.8 4.4 -2.2
v 2.3 4.4 -2.3
v 2.4 4.4 -2.3
v 2.7 4.4 -2.3
v 2.8 4.4 -2.3
v 2.7 4.5 -2.1
v 2.8 4.5 -2.1
v 2.7 4.5 -2.2
v 2.8 4.5 -2.2
v 1.7 4.6 -1.8
v 1.9 4.6 -1.8
v 2.1 4.6 -1.8
v 2.3 4.6 -1.8
v 1.7 4.6 -1.9
v 1.9 4.6 -1.9
v 2.1 4.6 -1.9
v 2.3 4.6 -1.9
v 1.3 4.6 -2
v 1.4 4.6 -2
v 2.6 4.6 -2
v 2.7 4.6 -2
v 1.3 4.6 -2.2
v 1.4 4.6 -2.2
v 2.6 4.6 -2.2
v 2.7 4.6 -2.2
v 1.5 4.7 -1.9
v 1.6 4.7 -1.9
v 2.4 4.7 -1.9
v 2.5 4.7 -1.9
v 1.4 4.7 -2
v 1.5 4.7 -2
v 1.6 4.7 -2
v 2.4 4.7 -2
v 2.5 4.7 -2
v 2.6 4.7 -2
v 1.4 4.7 -2.2
v 1.5 4.7 -2.2
v 1.7 4.7 -2.2
v 2.3 4.7 -2.2
v 2.4 4.7 -2.2
v 2.5 4.7 -2.2
v 2.6 4.7 -2.2
v 1.5 4.7 -2.3
v 1.7 4.7 -2.3
v 2.3 4.7 -2.3
v 2.4 4.7 -2.3
v 1.6 4.8 -1.9
v 1.8 4.8 -1.9
v 2.2 4.8 -1.9
v 2.4 4.8 -1.9
v 1.5 4.8 -2
v 1.6 4.8 -2
v 1.7 4.8 -2
v 1.8 4.8 -2
v 2.2 4.8 -2
v 2.3 4.8 -2
v 2.4 4.8 -2
v 2.5 4.8 -2
v 1.7 4.8 -2.1
v 1.8 4.8 -2.1
v 2.2 4.8 -2.1
v 2.3 4.8 -2.1
v 1.5 4.8 -2.2
v 1.7 4.8 -2.2
v 2.3 4.8 -2.2
v 2.5 4.8 -2.2
v 1.7 4.8 -2.3
v 1.8 4.8 -2.3
v 2.2 4.8 -2.3
v 2.3 4.8 -2.3
v 1.8 4.9 -1.9
v 1.9 4.9 -1.9
v 2.1 4.9 -1.9
v 2.2 4.9 -1.9
v 1.7 4.9 -2
v 1.8 4.9 -2
v 1.9 4.9 -2
v 2.1 4.9 -2
v 2.2 4.9 -2
v 2.3 4.9 -2
v 1.7 4.9 -2.1
v 1.8 4.9 -2.1
v 1.9 4.9 -2.1
v 2.1 4.9 -2.1
v 2.2 4.9 -2.1
v 2.3 4.9 -2.1
v 1.9 4.9 -2.2
v 2.1 4.9 -2.2
v 1.8 4.9 -2.3
v 2.2 4.9 -2.3
v 1.8 5.1 -1.9
v 1.9 5.1 -1.9
v 2.1 5.1 -1.9
v 2.2 5.1 -1.9
v 1.8 5.1 -2
v 1.9 5.1 -2
v 2.1 5.1 -2
v 2.2 5.1 -2
v 1.7 5.2 -1.9
v 1.8 5.2 -1.9
v 2.2 5.2 -1.9
v 2.3 5.2 -1.9
v 1.7 5.2 -2
v 1.8 5.2 -2
v 2.2 5.2 -2
v 2.3 5.2 -2
v 2.3 5.3 -2.3
v 2.4 5.3 -2.3
v 2.3 5.3 -2.4
v 2.4 5.3 -2.4
v 1.9 5.4 -1.7
v 2.1 5.4 -1.7
v 1.8 5.4 -1.8
v 1.9 5.4 -1.8
v 2.1 5.4 -1.8
v 2.2 5.4 -1.8
v 1.8 5.4 -1.9
v 1.9 5.4 -1.9
v 2.1 5.4 -1.9
v 2.2 5.4 -1.9
v 1.5 5.4 -2.1
v 1.6 5.4 -2.1
v 2.4 5.4 -2.1
v 2.5 5.4 -2.1
v 1.5 5.4 -2.2
v 1.6 5.4 -2.2
v 2.4 5.4 -2.2
v 2.5 5.4 -2.2
v 2.4 5.5 -2
v 2.5 5.5 -2
v 2.4 5.5 -2.1
v 2.5 5.5 -2.1
v 1.6 5.5 -2.2
v 1.7 5.5 -2.2
v 1.6 5.5 -2.3
v 1.7 5.5 -2.3
v 1.5 5.6 -1.8
v 1.6 5.6 -1.8
v 2.4 5.6 -1.8
v 2.5 5.6 -1.8
v 1.5 5.6 -1.9
v 1.6 5.6 -1.9
v 1.5 5.6 -2
v 1.6 5.6 -2
v 2.4 5.6 -2
v 2.5 5.6 -2
v 1.5 5.6 -2.1
v 1.6 5.6 -2.1
v 2.3 5.6 -2.2
v 2.4 5.6 -2.2
v 1.7 5.6 -2.3
v 1.8 5.6 -2.3
v 2.2 5.6 -2.3
v 2.3 5.6 -2.3
v 2.4 5.6 -2.3
v 1.7 5.6 -2.4
v 1.8 5.6 -2.4
v 1.9 5.6 -2.4
v 2.1 5.6 -2.4
v 2.2 5.6 -2.4
v 2.3 5.6 -2.4
v 1.8 5.6 -2.5
v 1.9 5.6 -2.5
v 2.1 5.6 -2.5
v 2.2 5.6 -2.5
v 1.6 5.7 -1.8
v 1.7 5.7 -1.8
v 1.5 5.7 -1.9
v 1.6 5.7 -1.9
v 1.5 5.7 -2
v 1.6 5.7 -2
v 1.7 5.7 -2
v 1.9 5.7 -2.4
v 2.1 5.7 -2.4
v 1.9 5.7 -2.5
v 2.1 5.7 -2.5
v 1.7 5.8 -1.7
v 2.3 5.8 -1.7
v 1.7 5.8 -1.8
v 2.3 5.8 -1.8
v 2.4 5.8 -1.8
v 1.6 5.8 -2
v 1.7 5.8 -2
v 1.6 5.8 -2.2
v 1.7 5.8 -2.2
v 1.8 5.8 -2.2
v 2.2 5.8 -2.2
v 2.3 5.8 -2.2
v 2.4 5.8 -2.2
v 1.7 5.8 -2.3
v 1.8 5.8 -2.3
v 2 5.8 -2.3
v 2.1 5.8 -2.3
v 2.2 5.8 -2.3
v 2.3 5.8 -2.3
v 1.8 5.8 -2.4
v 2 5.8 -2.4
v 2.1 5.8 -2.4
v 2.2 5.8 -2.4
v 1.7 5.9 -1.8
v 2.3 5.9 -1.8
v 1.7 5.9 -2.2
v 1.8 5.9 -2.2
v 2.2 5.9 -2.2
v 2.3 5.9 -2.2
v 1.8 5.9 -2.3
v 2 5.9 -2.3
v 2.1 5.9 -2.3
v 2.2 5.9 -2.3
v 2 5.9 -2.4
v 2.1 5.9 -2.4

# faces
f 3/1/1 2/1/1 1/1/1
f 5/1/1 3/1/1 1/1/1
f 5/1/1 4/1/1 3/1/1
f 6/1/1 4/1/1 5/1/1
f 9/1/1 8/1/1 7/1/1
f 12/1/1 8/1/1 9/1/1
f 13/1/1 8/1/1 12/1/1
f 15/1/1 11/1/1 10/1/1
f 16/1/1 11/1/1 15/1/1
f 17/1/1 14/1/1 13/1/1
f 18/1/1 14/1/1 17/1/1
f 19/1/1 17/1/1 16/1/1
f 20/1/1 17/1/1 19/1/1
f 21/1/1 17/1/1 20/1/1
f 23/6/1 21/6/1 20/6/1
f 24/6/1 23/6/1 22/6/1
f 25/6/1 21/6/1 23/6/1
f 25/6/1 23/6/1 24/6/1
f 28/6/1 27/6/1 26/6/1
f 29/6/1 27/6/1 28/6/1
f 32/6/1 31/6/1 30/6/1
f 33/6/1 31/6/1 32/6/1
f 36/6/1 35/6/1 34/6/1
f 37/6/1 35/6/1 36/6/1
f 41/7/1 39/7/1 38/7/1
f 42/8/1 40/8/1 39/8/1
f 42/7/1 39/7/1 41/7/1
f 43/8/1 40/8/1 42/8/1
f 44/8/1 40/8/1 43/8/1
f 45/8/1 43/8/1 42/8/1
f 46/8/1 43/8/1 45/8/1
f 47/8/1 43/8/1 46/8/1
f 49/8/1 48/8/1 47/8/1
f 49/8/1 47/8/1 46/8/1
f 50/8/1 48/8/1 49/8/1
f 53/5/1 52/5/1 51/5/1
f 54/5/1 52/5/1 53/5/1
f 55/5/1 52/5/1 54/5/1
f 56/5/1 52/5/1 55/5/1
f 61/6/1 58/6/1 57/6/1
f 62/6/1 58/6/1 61/6/1
f 64/6/1 60/6/1 59/6/1
f 65/6/1 60/6/1 64/6/1
f 66/6/1 63/6/1 62/6/1
f 67/6/1 63/6/1 66/6/1
f 68/6/1 66/6/1 65/6/1
f 69/6/1 66/6/1 68/6/1
f 75/7/1 71/7/1 70/7/1
f 76/7/1 71/7/1 75/7/1
f 77/7/1 73/7/1 72/7/1
f 78/7/1 73/7/1 77/7/1
f 79/7/1 76/7/1 75/7/1
f 79/7/1 75/7/1 74/7/1
f 79/7/1 77/7/1 76/7/1
f 80/7/1 77/7/1 79/7/1
f 81/7/1 77/7/1 80/7/1
f 82/7/1 77/7/1 81/7/1
f 83/7/1 81/7/1 80/7/1
f 84/7/1 81/7/1 83/7/1
f 87/8/1 86/8/1 85/8/1
f 88/8/1 86/8/1 87/8/1
f 91/8/1 90/8/1 89/8/1
f 92/8/1 90/8/1 91/8/1
f 96/6/1 94/6/1 93/6/1
f 97/5/1 95/5/1 94/5/1
f 97/6/1 94/6/1 96/6/1
f 99/5/1 97/5/1 96/5/1
f 100/5/1 99/5/1 98/5/1
f 101/5/1 97/5/1 99/5/1
f 101/5/1 99/5/1 100/5/1
f 102/5/1 95/5/1 97/5/1
f 102/5/1 97/5/1 101/5/1
f 107/5/1 104/5/1 103/5/1
f 108/5/1 104/5/1 107/5/1
f 109/5/1 106/5/1 105/5/1
f 110/5/1 106/5/1 109/5/1
f 111/7/1 108/7/1 107/7/1
f 111/7/1 109/7/1 108/7/1
f 112/7/1 109/7/1 111/7/1
f 113/6/1 112/6/1 111/6/1
f 114/6/1 112/6/1 113/6/1
f 115/6/1 113/6/1 111/6/1
f 116/6/1 113/6/1 115/6/1
f 119/6/1 118/6/1 117/6/1
f 122/6/1 119/6/1 117/6/1
f 122/6/1 120/6/1 119/6/1
f 123/6/1 120/6/1 122/6/1
f 124/6/1 122/6/1 121/6/1
f 125/6/1 122/6/1 124/6/1
f 126/6/1 120/6/1 123/6/1
f 127/6/1 120/6/1 126/6/1
f 130/6/1 129/6/1 128/6/1
f 131/6/1 129/6/1 130/6/1
f 136/7/1 133/7/1 132/7/1
f 137/7/1 133/7/1 136/7/1
f 138/7/1 133/7/1 137/7/1
f 139/1/1 135/1/1 134/1/1
f 140/1/1 135/1/1 139/1/1
f 141/7/1 137/7/1 136/7/1
f 142/7/1 137/7/1 141/7/1
f 143/7/1 133/7/1 138/7/1
f 144/7/1 143/7/1 142/7/1
f 144/7/1 133/7/1 143/7/1
f 145/7/1 133/7/1 144/7/1
f 149/7/1 144/7/1 142/7/1
f 150/7/1 147/7/1 146/7/1
f 151/7/1 147/7/1 150/7/1
f 152/7/1 149/7/1 148/7/1
f 153/7/1 149/7/1 152/7/1
f 154/7/1 144/7/1 149/7/1
f 154/7/1 149/7/1 153/7/1
f 159/5/1 156/5/1 155/5/1
f 160/5/1 156/5/1 159/5/1
f 161/5/1 158/5/1 157/5/1
f 162/5/1 158/5/1 161/5/1
f 167/7/1 164/7/1 163/7/1
f 168/7/1 164/7/1 167/7/1
f 169/7/1 166/7/1 165/7/1
f 170/7/1 166/7/1 169/7/1
f 175/6/1 172/6/1 171/6/1
f 176/6/1 174/6/1 173/6/1
f 177/6/1 175/6/1 171/6/1
f 177/6/1 176/6/1 175/6/1
f 178/6/1 176/6/1 177/6/1
f 179/6/1 174/6/1 176/6/1
f 179/6/1 176/6/1 178/6/1
f 182/6/1 180/6/1 179/6/1
f 182/6/1 179/6/1 178/6/1
f 183/6/1 180/6/1 182/6/1
f 184/6/1 180/6/1 183/6/1
f 185/6/1 180/6/1 184/6/1
f 186/6/1 182/6/1 181/6/1
f 187/6/1 182/6/1 186/6/1
f 190/6/1 189/6/1 188/6/1
f 191/6/1 189/6/1 190/6/1
f 196/6/1 193/6/1 192/6/1
f 197/6/1 193/6/1 196/6/1
f 198/6/1 195/6/1 194/6/1
f 199/6/1 195/6/1 198/6/1
f 204/1/1 201/1/1 200/1/1
f 205/7/1 202/7/1 201/7/1
f 205/1/1 201/1/1 204/1/1
f 206/7/1 202/7/1 205/7/1
f 208/1/1 204/1/1 203/1/1
f 209/1/1 204/1/1 208/1/1
f 211/7/1 207/7/1 206/7/1
f 214/7/1 207/7/1 211/7/1
f 214/7/1 211/7/1 210/7/1
f 215/7/1 207/7/1 214/7/1
f 216/7/1 213/7/1 212/7/1
f 218/7/1 216/7/1 212/7/1
f 218/7/1 217/7/1 216/7/1
f 219/7/1 217/7/1 218/7/1
f 220/7/1 217/7/1 219/7/1
f 221/7/1 214/7/1 210/7/1
f 222/7/1 214/7/1 221/7/1
f 223/7/1 220/7/1 219/7/1
f 223/7/1 221/7/1 220/7/1
f 224/7/1 221/7/1 223/7/1
f 229/5/1 226/5/1 225/5/1
f 230/5/1 226/5/1 229/5/1
f 231/5/1 228/5/1 227/5/1
f 232/5/1 228/5/1 231/5/1
f 235/6/1 234/6/1 233/6/1
f 236/6/1 234/6/1 235/6/1
f 241/6/1 238/6/1 237/6/1
f 242/6/1 238/6/1 241/6/1
f 243/6/1 240/6/1 239/6/1
f 244/6/1 240/6/1 243/6/1
f 249/6/1 246/6/1 245/6/1
f 250/6/1 246/6/1 249/6/1
f 251/6/1 248/6/1 247/6/1
f 252/6/1 248/6/1 251/6/1
f 254/1/1 251/1/1 250/1/1
f 255/1/1 254/1/1 253/1/1
f 256/1/1 251/1/1 254/1/1
f 256/1/1 254/1/1 255/1/1
f 257/1/1 251/1/1 256/1/1
f 260/1/1 255/1/1 253/1/1
f 261/1/1 255/1/1 260/1/1
f 263/7/1 259/7/1 258/7/1
f 264/7/1 259/7/1 263/7/1
f 265/1/1 262/1/1 261/1/1
f 266/1/1 262/1/1 265/1/1
f 268/7/1 259/7/1 264/7/1
f 269/7/1 259/7/1 268/7/1
f 271/7/1 268/7/1 267/7/1
f 272/7/1 268/7/1 271/7/1
f 273/7/1 271/7/1 270/7/1
f 274/7/1 271/7/1 273/7/1
f 277/6/1 276/6/1 275/6/1
f 278/6/1 276/6/1 277/6/1
f 283/1/1 280/1/1 279/1/1
f 284/1/1 280/1/1 283/1/1
f 285/1/1 282/1/1 281/1/1
f 289/1/1 286/1/1 285/1/1
f 289/1/1 285/1/1 281/1/1
f 290/1/1 286/1/1 289/1/1
f 291/1/1 286/1/1 290/1/1
f 292/6/1 288/6/1 287/6/1
f 293/6/1 288/6/1 292/6/1
f 296/1/1 295/1/1 294/1/1
f 297/1/1 295/1/1 296/1/1
f 299/1/1 298/1/1 297/1/1
f 300/1/1 298/1/1 299/1/1
f 303/7/1 302/7/1 301/7/1
f 304/7/1 302/7/1 303/7/1
f 307/7/1 306/7/1 305/7/1
f 308/7/1 306/7/1 307/7/1
f 311/5/1 310/5/1 309/5/1
f 312/5/1 310/5/1 311/5/1
f 314/5/1 310/5/1 312/5/1
f 315/5/1 310/5/1 314/5/1
f 316/5/1 314/5/1 313/5/1
f 317/5/1 314/5/1 316/5/1
f 320/6/1 319/6/1 318/6/1
f 321/6/1 319/6/1 320/6/1
f 325/7/1 323/7/1 322/7/1
f 326/8/1 324/8/1 323/8/1
f 326/7/1 323/7/1 325/7/1
f 327/8/1 324/8/1 326/8/1
f 328/8/1 324/8/1 327/8/1
f 329/8/1 324/8/1 328/8/1
f 330/8/1 324/8/1 329/8/1
f 331/8/1 324/8/1 330/8/1
f 334/5/1 333/5/1 332/5/1
f 335/5/1 333/5/1 334/5/1
f 337/5/1 336/5/1 335/5/1
f 338/5/1 336/5/1 337/5/1
f 341/5/1 340/5/1 339/5/1
f 344/5/1 341/5/1 339/5/1
f 344/5/1 342/5/1 341/5/1
f 345/5/1 342/5/1 344/5/1
f 347/5/1 345/5/1 344/5/1
f 347/5/1 346/5/1 345/5/1
f 347/5/1 344/5/1 343/5/1
f 348/5/1 346/5/1 347/5/1
f 349/5/1 347/5/1 343/5/1
f 350/5/1 347/5/1 349/5/1
f 353/7/1 352/7/1 351/7/1
f 354/7/1 352/7/1 353/7/1
f 357/1/1 356/1/1 355/1/1
f 358/1/1 356/1/1 357/1/1
f 361/4/1 360/4/1 359/4/1
f 362/4/1 360/4/1 361/4/1
f 365/7/1 364/7/1 363/7/1
f 366/7/1 364/7/1 365/7/1
f 369/8/1 368/8/1 367/8/1
f 370/8/1 368/8/1 369/8/1
f 373/7/1 372/7/1 371/7/1
f 374/7/1 372/7/1 373/7/1
f 376/8/1 375/8/1 374/8/1
f 377/8/1 375/8/1 376/8/1
f 379/6/1 377/6/1 376/6/1
f 380/5/1 378/5/1 377/5/1
f 380/6/1 377/6/1 379/6/1
f 382/5/1 380/5/1 379/5/1
f 383/5/1 378/5/1 380/5/1
f 383/5/1 380/5/1 382/5/1
f 384/5/1 382/5/1 381/5/1
f 385/5/1 382/5/1 384/5/1
f 386/5/1 378/5/1 383/5/1
f 387/5/1 378/5/1 386/5/1
f 388/5/1 386/5/1 385/5/1
f 390/5/1 388/5/1 385/5/1
f 390/5/1 389/5/1 388/5/1
f 391/5/1 389/5/1 390/5/1
f 392/5/1 389/5/1 391/5/1
f 393/5/1 389/5/1 392/5/1
f 395/5/1 394/5/1 393/5/1
f 396/5/1 394/5/1 395/5/1
f 399/6/1 398/6/1 397/6/1
f 400/6/1 398/6/1 399/6/1
f 403/7/1 402/7/1 401/7/1
f 404/7/1 402/7/1 403/7/1
f 407/6/1 406/6/1 405/6/1
f 408/6/1 406/6/1 407/6/1
f 411/6/1 410/6/1 409/6/1
f 412/6/1 410/6/1 411/6/1
f 415/6/1 414/6/1 413/6/1
f 416/6/1 414/6/1 415/6/1
f 421/1/1 418/1/1 417/1/1
f 423/1/1 420/1/1 419/1/1
f 424/1/1 420/1/1 423/1/1
f 425/1/1 422/1/1 421/1/1
f 425/1/1 421/1/1 417/1/1
f 426/1/1 422/1/1 425/1/1
f 427/1/1 422/1/1 426/1/1
f 428/1/1 425/1/1 424/1/1
f 428/1/1 426/1/1 425/1/1
f 429/1/1 426/1/1 428/1/1
f 430/1/1 426/1/1 429/1/1
f 432/6/1 430/6/1 429/6/1
f 433/6/1 430/6/1 432/6/1
f 435/6/1 433/6/1 432/6/1
f 435/6/1 434/6/1 433/6/1
f 435/6/1 432/6/1 431/6/1
f 436/6/1 434/6/1 435/6/1
f 437/6/1 435/6/1 431/6/1
f 438/6/1 435/6/1 437/6/1
f 439/6/1 434/6/1 436/6/1
f 440/6/1 434/6/1 439/6/1
f 443/1/1 442/1/1 441/1/1
f 444/1/1 442/1/1 443/1/1
f 445/1/1 442/1/1 444/1/1
f 446/1/2 447/1/2 448/1/2
f 448/1/2 447/1/2 449/1/2
f 449/1/2 447/1/2 450/1/2
f 451/1/2 452/1/2 455/1/2
f 453/1/2 454/1/2 457/1/2
f 457/1/2 454/1/2 458/1/2
f 455/1/2 456/1/2 459/1/2
f 451/1/2 455/1/2 459/1/2
f 459/1/2 456/1/2 460/1/2
f 460/1/2 456/1/2 461/1/2
f 458/1/2 459/1/2 462/1/2
f 459/1/2 460/1/2 462/1/2
f 462/1/2 460/1/2 463/1/2
f 463/1/2 460/1/2 464/1/2
f 463/6/2 464/6/2 466/6/2
f 465/6/2 466/6/2 467/6/2
f 466/6/2 464/6/2 468/6/2
f 467/6/2 466/6/2 468/6/2
f 468/6/2 464/6/2 469/6/2
f 469/6/2 464/6/2 470/6/2
f 471/6/2 472/6/2 473/6/2
f 471/6/2 473/6/2 475/6/2
f 473/6/2 474/6/2 475/6/2
f 475/6/2 474/6/2 476/6/2
f 476/6/2 474/6/2 477/6/2
f 471/6/2 475/6/2 478/6/2
f 478/6/2 475/6/2 479/6/2
f 479/6/2 480/6/2 481/6/2
f 481/6/2 480/6/2 482/6/2
f 483/6/2 484/6/2 485/6/2
f 485/6/2 484/6/2 486/6/2
f 487/8/2 488/8/2 489/8/2
f 489/8/2 488/8/2 490/8/2
f 491/7/2 492/7/2 493/7/2
f 493/7/2 492/7/2 494/7/2
f 495/8/2 496/8/2 498/8/2
f 498/8/2 496/8/2 499/8/2
f 497/6/2 498/6/2 500/6/2
f 498/5/2 499/5/2 501/5/2
f 500/6/2 498/6/2 501/6/2
f 500/5/2 501/5/2 503/5/2
f 501/5/2 499/5/2 504/5/2
f 503/5/2 501/5/2 504/5/2
f 502/5/2 503/5/2 505/5/2
f 505/5/2 503/5/2 506/5/2
f 504/5/2 499/5/2 507/5/2
f 507/5/2 499/5/2 508/5/2
f 506/5/2 507/5/2 509/5/2
f 506/5/2 509/5/2 511/5/2
f 509/5/2 510/5/2 511/5/2
f 511/5/2 510/5/2 512/5/2
f 512/5/2 510/5/2 513/5/2
f 513/5/2 510/5/2 514/5/2
f 514/5/2 515/5/2 516/5/2
f 516/5/2 515/5/2 517/5/2
f 518/7/2 519/7/2 521/7/2
f 519/8/2 520/8/2 522/8/2
f 521/7/2 519/7/2 522/7/2
f 522/8/2 520/8/2 523/8/2
f 523/8/2 520/8/2 524/8/2
f 524/8/2 520/8/2 525/8/2
f 523/8/2 524/8/2 526/8/2
f 526/8/2 524/8/2 527/8/2
f 528/5/2 529/5/2 530/5/2
f 530/5/2 529/5/2 531/5/2
f 531/5/2 532/5/2 533/5/2
f 533/5/2 532/5/2 534/5/2
f 535/5/2 536/5/2 537/5/2
f 535/5/2 537/5/2 540/5/2
f 537/5/2 538/5/2 540/5/2
f 540/5/2 538/5/2 541/5/2
f 540/5/2 541/5/2 543/5/2
f 541/5/2 542/5/2 543/5/2
f 539/5/2 540/5/2 543/5/2
f 543/5/2 542/5/2 544/5/2
f 539/5/2 543/5/2 545/5/2
f 545/5/2 543/5/2 546/5/2
f 547/7/2 548/7/2 549/7/2
f 549/7/2 548/7/2 550/7/2
f 551/1/2 552/1/2 553/1/2
f 553/1/2 552/1/2 554/1/2
f 555/4/2 556/4/2 557/4/2
f 557/4/2 556/4/2 558/4/2
f 559/7/2 560/7/2 561/7/2
f 561/7/2 560/7/2 562/7/2
f 563/5/2 564/5/2 565/5/2
f 565/5/2 564/5/2 566/5/2
f 566/5/2 564/5/2 568/5/2
f 568/5/2 564/5/2 569/5/2
f 567/5/2 568/5/2 570/5/2
f 570/5/2 568/5/2 571/5/2
f 572/6/2 573/6/2 574/6/2
f 574/6/2 573/6/2 575/6/2
f 576/6/2 577/6/2 578/6/2
f 578/6/2 577/6/2 579/6/2
f 580/1/2 581/1/2 584/1/2
f 584/1/2 581/1/2 585/1/2
f 582/1/2 583/1/2 586/1/2
f 586/1/2 587/1/2 590/1/2
f 582/1/2 586/1/2 590/1/2
f 590/1/2 587/1/2 591/1/2
f 591/1/2 587/1/2 592/1/2
f 588/6/2 589/6/2 595/6/2
f 595/6/2 589/6/2 596/6/2
f 593/7/2 594/7/2 597/7/2
f 597/7/2 594/7/2 598/7/2
f 599/1/2 600/1/2 601/1/2
f 601/1/2 600/1/2 602/1/2
f 602/1/2 603/1/2 604/1/2
f 604/1/2 603/1/2 605/1/2
f 606/7/2 607/7/2 608/7/2
f 608/7/2 607/7/2 609/7/2
f 610/7/2 611/7/2 612/7/2
f 612/7/2 611/7/2 613/7/2
f 614/5/2 615/5/2 618/5/2
f 618/5/2 615/5/2 619/5/2
f 616/5/2 617/5/2 620/5/2
f 620/5/2 617/5/2 621/5/2
f 622/6/2 623/6/2 624/6/2
f 624/6/2 623/6/2 625/6/2
f 628/6/2 629/6/2 630/6/2
f 630/6/2 629/6/2 631/6/2
f 626/6/2 627/6/2 632/6/2
f 632/6/2 627/6/2 633/6/2
f 634/6/2 635/6/2 638/6/2
f 638/6/2 635/6/2 639/6/2
f 636/6/2 637/6/2 640/6/2
f 640/6/2 637/6/2 641/6/2
f 639/1/2 640/1/2 643/1/2
f 642/1/2 643/1/2 644/1/2
f 643/1/2 640/1/2 645/1/2
f 644/1/2 643/1/2 645/1/2
f 645/1/2 640/1/2 646/1/2
f 642/1/2 644/1/2 649/1/2
f 649/1/2 644/1/2 650/1/2
f 647/7/2 648/7/2 652/7/2
f 652/7/2 648/7/2 653/7/2
f 650/1/2 651/1/2 655/1/2
f 655/1/2 651/1/2 656/1/2
f 653/7/2 654/7/2 658/7/2
f 658/7/2 654/7/2 659/7/2
f 657/7/2 658/7/2 661/7/2
f 661/7/2 658/7/2 662/7/2
f 660/7/2 661/7/2 663/7/2
f 663/7/2 661/7/2 664/7/2
f 665/5/2 666/5/2 669/5/2
f 669/5/2 666/5/2 670/5/2
f 667/5/2 668/5/2 671/5/2
f 671/5/2 668/5/2 672/5/2
f 673/7/2 674/7/2 677/7/2
f 677/7/2 674/7/2 678/7/2
f 675/7/2 676/7/2 679/7/2
f 679/7/2 676/7/2 680/7/2
f 681/6/2 682/6/2 685/6/2
f 683/6/2 684/6/2 686/6/2
f 681/6/2 685/6/2 687/6/2
f 685/6/2 686/6/2 687/6/2
f 687/6/2 686/6/2 688/6/2
f 688/6/2 686/6/2 690/6/2
f 690/6/2 686/6/2 691/6/2
f 689/6/2 690/6/2 691/6/2
f 686/6/2 684/6/2 692/6/2
f 691/6/2 686/6/2 692/6/2
f 689/6/2 691/6/2 693/6/2
f 693/6/2 691/6/2 694/6/2
f 695/6/2 696/6/2 699/6/2
f 699/6/2 696/6/2 700/6/2
f 697/6/2 698/6/2 701/6/2
f 701/6/2 698/6/2 702/6/2
f 703/6/2 704/6/2 707/6/2
f 707/6/2 704/6/2 708/6/2
f 705/6/2 706/6/2 709/6/2
f 709/6/2 706/6/2 710/6/2
f 711/7/2 712/7/2 713/7/2
f 713/7/2 712/7/2 714/7/2
f 715/7/2 716/7/2 720/7/2
f 720/7/2 716/7/2 721/7/2
f 717/7/2 718/7/2 722/7/2
f 722/7/2 718/7/2 723/7/2
f 719/7/2 720/7/2 724/7/2
f 724/7/2 720/7/2 725/7/2
f 723/7/2 724/7/2 726/7/2
f 726/7/2 724/7/2 727/7/2
f 728/8/2 729/8/2 730/8/2
f 730/8/2 729/8/2 731/8/2
f 732/8/2 733/8/2 735/8/2
f 735/8/2 733/8/2 736/8/2
f 734/8/2 735/8/2 737/8/2
f 737/8/2 735/8/2 738/8/2
f 737/6/2 738/6/2 740/6/2
f 738/5/2 739/5/2 741/5/2
f 740/6/2 738/6/2 741/6/2
f 740/5/2 741/5/2 743/5/2
f 742/5/2 743/5/2 744/5/2
f 743/5/2 741/5/2 745/5/2
f 744/5/2 743/5/2 745/5/2
f 741/5/2 739/5/2 746/5/2
f 745/5/2 741/5/2 746/5/2
f 747/5/2 748/5/2 751/5/2
f 751/5/2 748/5/2 752/5/2
f 749/5/2 750/5/2 753/5/2
f 753/5/2 750/5/2 754/5/2
f 751/7/2 752/7/2 755/7/2
f 752/7/2 753/7/2 755/7/2
f 755/7/2 753/7/2 756/7/2
f 755/6/2 756/6/2 757/6/2
f 757/6/2 756/6/2 758/6/2
f 755/6/2 757/6/2 759/6/2
f 759/6/2 757/6/2 760/6/2
f 761/6/2 762/6/2 764/6/2
f 764/6/2 762/6/2 765/6/2
f 765/6/2 762/6/2 766/6/2
f 763/6/2 764/6/2 767/6/2
f 767/6/2 764/6/2 768/6/2
f 769/6/2 770/6/2 773/6/2
f 773/6/2 770/6/2 774/6/2
f 771/6/2 772/6/2 775/6/2
f 775/6/2 772/6/2 776/6/2
f 777/7/2 778/7/2 780/7/2
f 780/7/2 778/7/2 781/7/2
f 780/7/2 781/7/2 783/7/2
f 781/7/2 782/7/2 783/7/2
f 779/7/2 780/7/2 783/7/2
f 783/7/2 782/7/2 784/7/2
f 784/7/2 782/7/2 785/7/2
f 785/7/2 782/7/2 786/7/2
f 786/7/2 782/7/2 787/7/2
f 787/7/2 782/7/2 788/7/2
f 788/7/2 782/7/2 789/7/2
f 783/1/2 784/1/2 790/1/2
f 790/1/2 784/1/2 791/1/2
f 785/7/2 786/7/2 792/7/2
f 792/7/2 786/7/2 793/7/2
f 787/7/2 788/7/2 794/7/2
f 793/7/2 794/7/2 796/7/2
f 795/7/2 796/7/2 798/7/2
f 794/7/2 788/7/2 799/7/2
f 796/7/2 794/7/2 799/7/2
f 798/7/2 796/7/2 799/7/2
f 799/7/2 788/7/2 800/7/2
f 797/7/2 798/7/2 801/7/2
f 798/7/2 799/7/2 801/7/2
f 801/7/2 799/7/2 802/7/2
f 803/7/2 804/7/2 806/7/2
f 804/8/2 805/8/2 807/8/2
f 806/7/2 804/7/2 807/7/2
f 807/8/2 805/8/2 808/8/2
f 808/8/2 805/8/2 809/8/2
f 807/8/2 808/8/2 810/8/2
f 810/8/2 808/8/2 811/8/2
f 811/8/2 812/8/2 813/8/2
f 813/8/2 812/8/2 814/8/2
f 815/5/2 816/5/2 817/5/2
f 817/5/2 816/5/2 818/5/2
f 818/5/2 816/5/2 819/5/2
f 819/5/2 816/5/2 820/5/2
f 821/6/2 822/6/2 825/6/2
f 825/6/2 822/6/2 826/6/2
f 823/6/2 824/6/2 827/6/2
f 827/6/2 824/6/2 828/6/2
f 828/6/2 829/6/2 830/6/2
f 830/6/2 829/6/2 831/6/2
f 832/7/2 833/7/2 837/7/2
f 837/7/2 833/7/2 838/7/2
f 834/7/2 835/7/2 839/7/2
f 839/7/2 835/7/2 840/7/2
f 837/7/2 838/7/2 841/7/2
f 836/7/2 837/7/2 841/7/2
f 838/7/2 839/7/2 841/7/2
f 841/7/2 839/7/2 842/7/2
f 836/7/2 841/7/2 843/7/2
f 843/7/2 841/7/2 844/7/2
f 845/6/2 846/6/2 847/6/2
f 847/6/2 846/6/2 848/6/2
f 849/6/2 850/6/2 851/6/2
f 849/6/2 851/6/2 853/6/2
f 851/6/2 852/6/2 853/6/2
f 853/6/2 852/6/2 854/6/2
f 855/1/2 856/1/2 857/1/2
f 857/1/2 856/1/2 860/1/2
f 860/1/2 856/1/2 861/1/2
f 858/1/2 859/1/2 863/1/2
f 863/1/2 859/1/2 864/1/2
f 861/1/2 862/1/2 865/1/2
f 865/1/2 862/1/2 866/1/2
f 864/1/2 865/1/2 867/1/2
f 867/1/2 865/1/2 868/1/2
f 868/1/2 865/1/2 869/1/2
f 868/6/2 869/6/2 871/6/2
f 871/6/2 869/6/2 872/6/2
f 871/6/2 872/6/2 874/6/2
f 872/6/2 873/6/2 874/6/2
f 870/6/2 871/6/2 874/6/2
f 874/6/2 873/6/2 875/6/2
f 875/6/2 873/6/2 876/6/2
f 876/6/2 873/6/2 877/6/2
f 875/6/2 876/6/2 878/6/2
f 878/6/2 876/6/2 879/6/2
f 880/1/2 881/1/2 882/1/2
f 880/1/2 882/1/2 884/1/2
f 882/1/2 883/1/2 884/1/2
f 884/1/2 883/1/2 885/1/2
f 888/8/3 887/8/3 886/8/3
f 889/8/3 887/8/3 888/8/3
f 892/7/3 891/7/3 890/7/3
f 893/7/3 891/7/3 892/7/3
f 896/1/3 895/1/3 894/1/3
f 897/1/3 895/1/3 896/1/3
f 899/7/3 891/7/3 893/7/3
f 902/7/3 899/7/3 898/7/3
f 903/7/3 891/7/3 899/7/3
f 903/7/3 899/7/3 902/7/3
f 904/8/3 901/8/3 900/8/3
f 905/8/3 901/8/3 904/8/3
f 910/7/3 907/7/3 906/7/3
f 911/7/3 907/7/3 910/7/3
f 913/7/3 909/7/3 908/7/3
f 914/7/3 909/7/3 913/7/3
f 921/1/3 913/1/3 912/1/3
f 921/1/3 914/1/3 913/1/3
f 922/1/3 914/1/3 921/1/3
f 923/1/3 914/1/3 922/1/3
f 924/7/3 915/7/3 914/7/3
f 924/1/3 914/1/3 923/1/3
f 925/7/3 915/7/3 924/7/3
f 928/7/3 917/7/3 916/7/3
f 929/7/3 917/7/3 928/7/3
f 931/1/3 921/1/3 920/1/3
f 931/1/3 922/1/3 921/1/3
f 932/4/3 923/4/3 922/4/3
f 932/1/3 922/1/3 931/1/3
f 933/1/3 924/1/3 923/1/3
f 933/4/3 923/4/3 932/4/3
f 934/1/3 924/1/3 933/1/3
f 936/6/3 919/6/3 918/6/3
f 937/6/3 919/6/3 936/6/3
f 938/1/3 931/1/3 930/1/3
f 938/1/3 932/1/3 931/1/3
f 939/1/3 932/1/3 938/1/3
f 940/1/3 932/1/3 939/1/3
f 941/1/3 932/1/3 940/1/3
f 942/1/3 935/1/3 934/1/3
f 942/1/3 934/1/3 933/1/3
f 945/1/3 938/1/3 930/1/3
f 945/2/3 939/2/3 938/2/3
f 946/1/3 940/1/3 939/1/3
f 946/2/3 939/2/3 945/2/3
f 947/1/3 940/1/3 946/1/3
f 948/1/3 942/1/3 941/1/3
f 949/1/3 935/1/3 942/1/3
f 949/1/3 942/1/3 948/1/3
f 952/1/3 947/1/3 946/1/3
f 952/1/3 948/1/3 947/1/3
f 952/1/3 945/1/3 930/1/3
f 952/1/3 946/1/3 945/1/3
f 953/1/3 948/1/3 952/1/3
f 954/1/3 948/1/3 953/1/3
f 955/1/3 935/1/3 949/1/3
f 956/1/3 935/1/3 955/1/3
f 957/1/3 935/1/3 956/1/3
f 958/7/3 951/7/3 950/7/3
f 959/7/3 951/7/3 958/7/3
f 960/6/3 944/6/3 943/6/3
f 961/6/3 944/6/3 960/6/3
f 962/1/3 954/1/3 953/1/3
f 963/1/3 954/1/3 962/1/3
f 964/4/3 955/4/3 954/4/3
f 964/1/3 954/1/3 963/1/3
f 965/1/3 956/1/3 955/1/3
f 965/4/3 955/4/3 964/4/3
f 966/1/3 956/1/3 965/1/3
f 967/7/3 927/7/3 926/7/3
f 968/7/3 927/7/3 967/7/3
f 971/7/3 963/7/3 962/7/3
f 972/1/3 966/1/3 965/1/3
f 972/7/3 963/7/3 971/7/3
f 972/1/3 965/1/3 964/1/3
f 972/1/3 964/1/3 963/1/3
f 973/1/3 966/1/3 972/1/3
f 974/7/3 967/7/3 966/7/3
f 974/1/3 966/1/3 973/1/3
f 975/7/3 967/7/3 974/7/3
f 976/7/3 970/7/3 969/7/3
f 977/7/3 970/7/3 976/7/3
f 978/7/3 974/7/3 973/7/3
f 979/7/3 974/7/3 978/7/3
f 982/1/3 981/1/3 980/1/3
f 983/1/3 981/1/3 982/1/3
f 992/8/3 985/8/3 984/8/3
f 993/8/3 985/8/3 992/8/3
f 997/6/3 987/6/3 986/6/3
f 998/6/3 987/6/3 997/6/3
f 1000/7/3 989/7/3 988/7/3
f 1001/7/3 989/7/3 1000/7/3
f 1002/7/3 991/7/3 990/7/3
f 1003/7/3 991/7/3 1002/7/3
f 1004/7/3 993/7/3 992/7/3
f 1005/7/3 993/7/3 1004/7/3
f 1006/5/3 995/5/3 994/5/3
f 1007/5/3 995/5/3 1006/5/3
f 1015/6/3 999/6/3 998/6/3
f 1015/6/3 997/6/3 996/6/3
f 1015/6/3 998/6/3 997/6/3
f 1016/6/3 999/6/3 1015/6/3
f 1017/6/3 999/6/3 1016/6/3
f 1020/5/3 1009/5/3 1008/5/3
f 1021/5/3 1009/5/3 1020/5/3
f 1023/7/3 1011/7/3 1010/7/3
f 1024/7/3 1011/7/3 1023/7/3
f 1025/6/3 1013/6/3 1012/6/3
f 1026/6/3 1013/6/3 1025/6/3
f 1027/6/3 1016/6/3 1015/6/3
f 1027/6/3 1015/6/3 1014/6/3
f 1028/6/3 999/6/3 1017/6/3
f 1030/1/3 1019/1/3 1018/1/3
f 1031/1/3 1019/1/3 1030/1/3
f 1034/6/3 1027/6/3 1026/6/3
f 1034/6/3 1026/6/3 1025/6/3
f 1034/6/3 1025/6/3 1024/6/3
f 1034/6/3 1016/6/3 1027/6/3
f 1035/6/3 1029/6/3 1028/6/3
f 1035/6/3 1028/6/3 1017/6/3
f 1036/6/3 1029/6/3 1035/6/3
f 1038/7/3 1033/7/3 1032/7/3
f 1039/7/3 1033/7/3 1038/7/3
f 1040/6/3 1034/6/3 1024/6/3
f 1040/6/3 1035/6/3 1034/6/3
f 1040/6/3 1036/6/3 1035/6/3
f 1041/6/3 1036/6/3 1040/6/3
f 1042/1/3 1037/1/3 1036/1/3
f 1042/6/3 1036/6/3 1041/6/3
f 1043/1/3 1037/1/3 1042/1/3
f 1048/5/3 1023/5/3 1022/5/3
f 1049/7/3 1024/7/3 1023/7/3
f 1049/5/3 1023/5/3 1048/5/3
f 1050/6/3 1040/6/3 1024/6/3
f 1050/7/3 1024/7/3 1049/7/3
f 1051/6/3 1040/6/3 1050/6/3
f 1052/6/3 1040/6/3 1051/6/3
f 1053/6/3 1040/6/3 1052/6/3
f 1054/6/3 1042/6/3 1041/6/3
f 1055/6/3 1042/6/3 1054/6/3
f 1058/7/3 1045/7/3 1044/7/3
f 1059/7/3 1045/7/3 1058/7/3
f 1064/5/3 1047/5/3 1046/5/3
f 1065/5/3 1047/5/3 1064/5/3
f 1066/7/3 1050/7/3 1049/7/3
f 1067/7/3 1050/7/3 1066/7/3
f 1068/6/3 1052/6/3 1051/6/3
f 1069/6/3 1052/6/3 1068/6/3
f 1070/6/3 1040/6/3 1053/6/3
f 1071/6/3 1040/6/3 1070/6/3
f 1072/6/3 1040/6/3 1071/6/3
f 1073/6/3 1054/6/3 1041/6/3
f 1074/1/3 1057/1/3 1056/1/3
f 1075/1/3 1057/1/3 1074/1/3
f 1076/7/3 1061/7/3 1060/7/3
f 1077/7/3 1061/7/3 1076/7/3
f 1078/5/3 1063/5/3 1062/5/3
f 1079/5/3 1063/5/3 1078/5/3
f 1080/6/3 1073/6/3 1072/6/3
f 1080/6/3 1072/6/3 1071/6/3
f 1081/6/3 1073/6/3 1080/6/3
f 1082/6/3 1054/6/3 1073/6/3
f 1082/6/3 1073/6/3 1081/6/3
f 1083/6/3 1054/6/3 1082/6/3
f 1084/7/3 1075/7/3 1074/7/3
f 1085/7/3 1075/7/3 1084/7/3
f 1088/8/3 1077/8/3 1076/8/3
f 1089/8/3 1077/8/3 1088/8/3
f 1090/6/3 1082/6/3 1081/6/3
f 1091/6/3 1082/6/3 1090/6/3
f 1092/7/3 1087/7/3 1086/7/3
f 1093/7/3 1087/7/3 1092/7/3
f 1096/1/3 1095/1/3 1094/1/3
f 1097/1/3 1095/1/3 1096/1/3
f 1100/1/3 1099/1/3 1098/1/3
f 1101/1/3 1099/1/3 1100/1/3
f 1102/1/3 1099/1/3 1101/1/3
f 1106/1/3 1103/1/3 1102/1/3
f 1107/1/3 1103/1/3 1106/1/3
f 1108/6/3 1105/6/3 1104/6/3
f 1109/6/3 1105/6/3 1108/6/3
f 1110/6/3 1105/6/3 1109/6/3
f 1112/6/3 1111/6/3 1110/6/3
f 1112/6/3 1110/6/3 1109/6/3
f 1113/6/3 1111/6/3 1112/6/3
f 1114/6/3 1111/6/3 1113/6/3
f 1120/6/3 1115/6/3 1114/6/3
f 1120/6/3 1114/6/3 1113/6/3
f 1121/6/3 1115/6/3 1120/6/3
f 1123/8/3 1117/8/3 1116/8/3
f 1124/8/3 1117/8/3 1123/8/3
f 1127/5/3 1119/5/3 1118/5/3
f 1128/5/3 1119/5/3 1127/5/3
f 1133/6/3 1120/6/3 1113/6/3
f 1134/6/3 1120/6/3 1133/6/3
f 1135/6/3 1122/6/3 1121/6/3
f 1136/6/3 1122/6/3 1135/6/3
f 1142/8/3 1124/8/3 1123/8/3
f 1143/6/3 1125/6/3 1124/6/3
f 1143/8/3 1124/8/3 1142/8/3
f 1144/5/3 1126/5/3 1125/5/3
f 1144/6/3 1125/6/3 1143/6/3
f 1145/5/3 1126/5/3 1144/5/3
f 1146/5/3 1128/5/3 1127/5/3
f 1146/5/3 1129/5/3 1128/5/3
f 1147/5/3 1129/5/3 1146/5/3
f 1148/5/3 1129/5/3 1147/5/3
f 1149/5/3 1129/5/3 1148/5/3
f 1150/7/3 1130/7/3 1129/7/3
f 1150/5/3 1129/5/3 1149/5/3
f 1151/6/3 1131/6/3 1130/6/3
f 1151/7/3 1130/7/3 1150/7/3
f 1152/6/3 1131/6/3 1151/6/3
f 1153/6/3 1131/6/3 1152/6/3
f 1155/6/3 1133/6/3 1132/6/3
f 1156/6/3 1133/6/3 1155/6/3
f 1159/7/3 1138/7/3 1137/7/3
f 1160/7/3 1138/7/3 1159/7/3
f 1161/7/3 1140/7/3 1139/7/3
f 1162/7/3 1140/7/3 1161/7/3
f 1163/8/3 1143/8/3 1142/8/3
f 1163/8/3 1142/8/3 1141/8/3
f 1164/8/3 1143/8/3 1163/8/3
f 1165/5/3 1146/5/3 1145/5/3
f 1166/5/3 1146/5/3 1165/5/3
f 1167/5/3 1148/5/3 1147/5/3
f 1168/5/3 1148/5/3 1167/5/3
f 1170/5/3 1150/5/3 1149/5/3
f 1171/5/3 1150/5/3 1170/5/3
f 1172/5/3 1150/5/3 1171/5/3
f 1173/6/3 1152/6/3 1151/6/3
f 1174/6/3 1152/6/3 1173/6/3
f 1175/6/3 1155/6/3 1154/6/3
f 1176/6/3 1155/6/3 1175/6/3
f 1177/6/3 1158/6/3 1157/6/3
f 1178/6/3 1158/6/3 1177/6/3
f 1181/1/3 1160/1/3 1159/1/3
f 1182/1/3 1160/1/3 1181/1/3
f 1183/5/3 1170/5/3 1169/5/3
f 1183/5/3 1171/5/3 1170/5/3
f 1184/5/3 1171/5/3 1183/5/3
f 1185/1/3 1179/1/3 1178/1/3
f 1186/1/3 1179/1/3 1185/1/3
f 1187/1/3 1181/1/3 1180/1/3
f 1188/1/3 1181/1/3 1187/1/3
f 1190/5/3 1171/5/3 1184/5/3
f 1201/5/3 1190/5/3 1189/5/3
f 1202/5/3 1171/5/3 1190/5/3
f 1202/5/3 1190/5/3 1201/5/3
f 1203/5/3 1171/5/3 1202/5/3
f 1210/1/3 1192/1/3 1191/1/3
f 1211/1/3 1192/1/3 1210/1/3
f 1212/1/3 1194/1/3 1193/1/3
f 1213/1/3 1194/1/3 1212/1/3
f 1215/8/3 1196/8/3 1195/8/3
f 1216/8/3 1196/8/3 1215/8/3
f 1219/5/3 1198/5/3 1197/5/3
f 1220/5/3 1198/5/3 1219/5/3
f 1221/5/3 1200/5/3 1199/5/3
f 1222/5/3 1200/5/3 1221/5/3
f 1223/5/3 1203/5/3 1202/5/3
f 1223/5/3 1204/5/3 1203/5/3
f 1224/5/3 1204/5/3 1223/5/3
f 1225/6/3 1206/6/3 1205/6/3
f 1226/6/3 1206/6/3 1225/6/3
f 1228/6/3 1208/6/3 1207/6/3
f 1229/6/3 1208/6/3 1228/6/3
f 1232/6/3 1210/6/3 1209/6/3
f 1233/6/3 1210/6/3 1232/6/3
f 1234/1/3 1214/1/3 1213/1/3
f 1235/1/3 1214/1/3 1234/1/3
f 1236/8/3 1217/8/3 1216/8/3
f 1237/6/3 1218/6/3 1217/6/3
f 1237/8/3 1217/8/3 1236/8/3
f 1238/5/3 1219/5/3 1218/5/3
f 1238/6/3 1218/6/3 1237/6/3
f 1239/5/3 1219/5/3 1238/5/3
f 1240/5/3 1222/5/3 1221/5/3
f 1240/5/3 1221/5/3 1220/5/3
f 1240/5/3 1224/5/3 1223/5/3
f 1240/5/3 1223/5/3 1222/5/3
f 1241/5/3 1224/5/3 1240/5/3
f 1242/7/3 1225/7/3 1224/7/3
f 1242/5/3 1224/5/3 1241/5/3
f 1243/6/3 1227/6/3 1226/6/3
f 1243/7/3 1225/7/3 1242/7/3
f 1243/6/3 1226/6/3 1225/6/3
f 1244/6/3 1227/6/3 1243/6/3
f 1245/6/3 1231/6/3 1230/6/3
f 1246/6/3 1231/6/3 1245/6/3
f 1250/5/3 1241/5/3 1240/5/3
f 1251/5/3 1241/5/3 1250/5/3
f 1252/6/3 1247/6/3 1246/6/3
f 1253/6/3 1249/6/3 1248/6/3
f 1254/6/3 1249/6/3 1253/6/3
f 1255/6/3 1253/6/3 1252/6/3
f 1256/6/3 1253/6/3 1255/6/3
f 1261/6/3 1252/6/3 1246/6/3
f 1261/6/3 1255/6/3 1252/6/3
f 1262/6/3 1255/6/3 1261/6/3
f 1265/1/3 1258/1/3 1257/1/3
f 1266/1/3 1258/1/3 1265/1/3
f 1267/6/3 1260/6/3 1259/6/3
f 1268/6/3 1260/6/3 1267/6/3
f 1269/1/3 1264/1/3 1263/1/3
f 1269/1/3 1265/1/3 1264/1/3
f 1270/1/3 1265/1/3 1269/1/3
f 1276/1/3 1272/1/3 1271/1/3
f 1276/1/3 1273/1/3 1272/1/3
f 1277/1/3 1273/1/3 1276/1/3
f 1278/6/3 1275/6/3 1274/6/3
f 1279/6/3 1275/6/3 1278/6/3
f 1284/6/3 1281/6/3 1280/6/3
f 1285/6/3 1281/6/3 1284/6/3
f 1288/5/3 1283/5/3 1282/5/3
f 1289/5/3 1283/5/3 1288/5/3
f 1290/7/3 1287/7/3 1286/7/3
f 1291/7/3 1287/7/3 1290/7/3
f 1294/5/3 1293/5/3 1292/5/3
f 1295/5/3 1293/5/3 1294/5/3
f 1300/8/3 1297/8/3 1296/8/3
f 1301/8/3 1297/8/3 1300/8/3
f 1302/5/3 1299/5/3 1298/5/3
f 1303/5/3 1299/5/3 1302/5/3
f 1310/8/3 1305/8/3 1304/8/3
f 1311/8/3 1305/8/3 1310/8/3
f 1312/5/3 1307/5/3 1306/5/3
f 1313/5/3 1307/5/3 1312/5/3
f 1316/7/3 1309/7/3 1308/7/3
f 1317/7/3 1309/7/3 1316/7/3
f 1319/6/3 1315/6/3 1314/6/3
f 1324/6/3 1319/6/3 1318/6/3
f 1325/6/3 1315/6/3 1319/6/3
f 1325/6/3 1319/6/3 1324/6/3
f 1326/6/3 1315/6/3 1325/6/3
f 1328/1/3 1321/1/3 1320/1/3
f 1329/1/3 1321/1/3 1328/1/3
f 1330/1/3 1321/1/3 1329/1/3
f 1331/6/3 1323/6/3 1322/6/3
f 1332/6/3 1323/6/3 1331/6/3
f 1333/6/3 1327/6/3 1326/6/3
f 1333/6/3 1326/6/3 1325/6/3
f 1334/6/3 1327/6/3 1333/6/3
f 1335/1/4 1336/1/4 1338/1/4
f 1338/1/4 1336/1/4 1339/1/4
f 1337/1/4 1338/1/4 1340/1/4
f 1340/1/4 1338/1/4 1341/1/4
f 1342/1/4 1343/1/4 1344/1/4
f 1344/1/4 1343/1/4 1345/1/4
f 1345/1/4 1346/1/4 1347/1/4
f 1347/1/4 1346/1/4 1348/1/4
f 1349/1/4 1350/1/4 1351/1/4
f 1351/1/4 1350/1/4 1352/1/4
f 1353/7/4 1354/7/4 1357/7/4
f 1357/7/4 1354/7/4 1358/7/4
f 1355/7/4 1356/7/4 1359/7/4
f 1359/7/4 1356/7/4 1360/7/4
f 1361/7/4 1362/7/4 1363/7/4
f 1363/7/4 1362/7/4 1364/7/4
f 1365/7/4 1366/7/4 1369/7/4
f 1369/7/4 1366/7/4 1370/7/4
f 1367/7/4 1368/7/4 1371/7/4
f 1371/7/4 1368/7/4 1372/7/4
f 1373/1/4 1374/1/4 1375/1/4
f 1375/1/4 1374/1/4 1376/1/4
f 1377/1/4 1378/1/4 1379/1/4
f 1379/1/4 1378/1/4 1380/1/4
f 1381/6/4 1382/6/4 1383/6/4
f 1383/6/4 1382/6/4 1384/6/4
f 1385/6/4 1386/6/4 1389/6/4
f 1389/6/4 1386/6/4 1390/6/4
f 1387/8/4 1388/8/4 1393/8/4
f 1393/8/4 1388/8/4 1394/8/4
f 1391/7/4 1392/7/4 1397/7/4
f 1397/7/4 1392/7/4 1398/7/4
f 1395/6/4 1396/6/4 1405/6/4
f 1405/6/4 1396/6/4 1406/6/4
f 1399/8/4 1400/8/4 1409/8/4
f 1409/8/4 1400/8/4 1410/8/4
f 1401/5/4 1402/5/4 1411/5/4
f 1411/5/4 1402/5/4 1412/5/4
f 1403/5/4 1404/5/4 1413/5/4
f 1413/5/4 1404/5/4 1414/5/4
f 1407/6/4 1408/6/4 1415/6/4
f 1415/6/4 1408/6/4 1416/6/4
f 1416/1/4 1417/1/4 1418/1/4
f 1418/1/4 1417/1/4 1419/1/4
f 1420/1/4 1421/1/4 1427/1/4
f 1427/1/4 1421/1/4 1428/1/4
f 1422/5/4 1423/5/4 1429/5/4
f 1429/5/4 1423/5/4 1430/5/4
f 1424/5/4 1425/5/4 1431/5/4
f 1431/5/4 1425/5/4 1432/5/4
f 1426/6/4 1427/6/4 1435/6/4
f 1435/6/4 1427/6/4 1436/6/4
f 1433/6/4 1434/6/4 1439/6/4
f 1439/6/4 1434/6/4 1440/6/4
f 1437/8/4 1438/8/4 1443/8/4
f 1443/8/4 1438/8/4 1444/8/4
f 1441/7/4 1442/7/4 1447/7/4
f 1447/7/4 1442/7/4 1448/7/4
f 1445/6/4 1446/6/4 1449/6/4
f 1449/6/4 1446/6/4 1450/6/4
f 1451/1/4 1452/1/4 1453/1/4
f 1453/1/4 1452/1/4 1454/1/4
f 1455/1/4 1456/1/4 1458/1/4
f 1458/1/4 1456/1/4 1459/1/4
f 1457/1/4 1458/1/4 1462/1/4
f 1462/1/4 1458/1/4 1463/1/4
f 1459/1/4 1460/1/4 1464/1/4
f 1460/6/4 1461/6/4 1465/6/4
f 1464/1/4 1460/1/4 1465/1/4
f 1465/6/4 1461/6/4 1466/6/4
f 1466/6/4 1461/6/4 1467/6/4
f 1467/6/4 1461/6/4 1468/6/4
f 1468/6/4 1469/6/4 1470/6/4
f 1467/6/4 1468/6/4 1470/6/4
f 1470/6/4 1469/6/4 1471/6/4
f 1471/6/4 1469/6/4 1472/6/4
f 1472/6/4 1469/6/4 1473/6/4
f 1470/6/4 1471/6/4 1481/6/4
f 1481/6/4 1471/6/4 1482/6/4
f 1473/6/4 1474/6/4 1483/6/4
f 1472/6/4 1473/6/4 1483/6/4
f 1483/6/4 1474/6/4 1484/6/4
f 1475/8/4 1476/8/4 1488/8/4
f 1477/8/4 1478/8/4 1489/8/4
f 1489/8/4 1478/8/4 1490/8/4
f 1479/5/4 1480/5/4 1491/5/4
f 1491/5/4 1480/5/4 1492/5/4
f 1492/5/4 1480/5/4 1493/5/4
f 1482/6/4 1483/6/4 1498/6/4
f 1498/6/4 1483/6/4 1499/6/4
f 1486/7/4 1487/7/4 1500/7/4
f 1500/7/4 1487/7/4 1501/7/4
f 1489/8/4 1490/8/4 1504/8/4
f 1488/8/4 1489/8/4 1504/8/4
f 1490/5/4 1491/5/4 1505/5/4
f 1504/8/4 1490/8/4 1505/8/4
f 1491/5/4 1492/5/4 1505/5/4
f 1505/5/4 1492/5/4 1506/5/4
f 1506/5/4 1492/5/4 1507/5/4
f 1507/5/4 1492/5/4 1508/5/4
f 1493/7/4 1494/7/4 1510/7/4
f 1494/6/4 1495/6/4 1511/6/4
f 1510/7/4 1494/7/4 1511/7/4
f 1511/6/4 1495/6/4 1512/6/4
f 1496/6/4 1497/6/4 1514/6/4
f 1514/6/4 1497/6/4 1515/6/4
f 1484/6/4 1485/6/4 1516/6/4
f 1516/6/4 1485/6/4 1517/6/4
f 1502/7/4 1503/7/4 1518/7/4
f 1518/7/4 1503/7/4 1519/7/4
f 1475/8/4 1488/8/4 1521/8/4
f 1488/8/4 1504/8/4 1521/8/4
f 1521/8/4 1504/8/4 1522/8/4
f 1506/5/4 1507/5/4 1523/5/4
f 1523/5/4 1507/5/4 1524/5/4
f 1508/5/4 1509/5/4 1525/5/4
f 1525/5/4 1509/5/4 1526/5/4
f 1512/6/4 1513/6/4 1528/6/4
f 1511/6/4 1512/6/4 1528/6/4
f 1528/6/4 1513/6/4 1529/6/4
f 1529/6/4 1513/6/4 1530/6/4
f 1519/7/4 1520/7/4 1531/7/4
f 1531/7/4 1520/7/4 1532/7/4
f 1527/7/4 1528/7/4 1534/7/4
f 1528/6/4 1529/6/4 1535/6/4
f 1534/7/4 1528/7/4 1535/7/4
f 1535/6/4 1529/6/4 1536/6/4
f 1533/5/4 1534/5/4 1539/5/4
f 1534/7/4 1535/7/4 1540/7/4
f 1539/5/4 1534/5/4 1540/5/4
f 1540/7/4 1535/7/4 1541/7/4
f 1537/1/4 1538/1/4 1543/1/4
f 1543/1/4 1538/1/4 1544/1/4
f 1540/7/4 1541/7/4 1551/7/4
f 1541/6/4 1542/6/4 1552/6/4
f 1551/7/4 1541/7/4 1552/7/4
f 1552/6/4 1542/6/4 1553/6/4
f 1545/8/4 1546/8/4 1557/8/4
f 1547/5/4 1548/5/4 1558/5/4
f 1558/5/4 1548/5/4 1559/5/4
f 1549/5/4 1550/5/4 1560/5/4
f 1560/5/4 1550/5/4 1561/5/4
f 1553/6/4 1554/6/4 1563/6/4
f 1552/6/4 1553/6/4 1563/6/4
f 1563/6/4 1554/6/4 1564/6/4
f 1564/6/4 1554/6/4 1565/6/4
f 1565/6/4 1554/6/4 1566/6/4
f 1555/7/4 1556/7/4 1571/7/4
f 1571/7/4 1556/7/4 1572/7/4
f 1545/8/4 1557/8/4 1573/8/4
f 1573/8/4 1557/8/4 1574/8/4
f 1558/5/4 1559/5/4 1575/5/4
f 1574/8/4 1557/8/4 1575/8/4
f 1559/5/4 1560/5/4 1575/5/4
f 1557/5/4 1558/5/4 1575/5/4
f 1575/5/4 1560/5/4 1576/5/4
f 1576/5/4 1560/5/4 1577/5/4
f 1562/7/4 1563/7/4 1578/7/4
f 1563/6/4 1564/6/4 1579/6/4
f 1578/7/4 1563/7/4 1579/7/4
f 1579/6/4 1564/6/4 1580/6/4
f 1566/6/4 1567/6/4 1581/6/4
f 1581/6/4 1567/6/4 1582/6/4
f 1568/6/4 1569/6/4 1583/6/4
f 1570/7/4 1571/7/4 1586/7/4
f 1586/7/4 1571/7/4 1587/7/4
f 1545/8/4 1573/8/4 1588/8/4
f 1588/8/4 1573/8/4 1589/8/4
f 1574/8/4 1575/8/4 1590/8/4
f 1590/8/4 1575/8/4 1591/8/4
f 1576/5/4 1577/5/4 1592/5/4
f 1577/5/4 1578/5/4 1592/5/4
f 1592/5/4 1578/5/4 1593/5/4
f 1581/6/4 1582/6/4 1595/6/4
f 1582/6/4 1583/6/4 1595/6/4
f 1595/6/4 1583/6/4 1596/6/4
f 1583/6/4 1569/6/4 1597/6/4
f 1596/6/4 1583/6/4 1597/6/4
f 1597/6/4 1569/6/4 1598/6/4
f 1584/7/4 1585/7/4 1599/7/4
f 1599/7/4 1585/7/4 1600/7/4
f 1594/6/4 1595/6/4 1602/6/4
f 1602/6/4 1595/6/4 1603/6/4
f 1596/6/4 1597/6/4 1604/6/4
f 1604/6/4 1597/6/4 1605/6/4
f 1605/6/4 1597/6/4 1606/6/4
f 1602/6/4 1603/6/4 1612/6/4
f 1601/6/4 1602/6/4 1612/6/4
f 1603/6/4 1604/6/4 1612/6/4
f 1604/6/4 1605/6/4 1612/6/4
f 1612/6/4 1605/6/4 1613/6/4
f 1613/6/4 1605/6/4 1614/6/4
f 1614/6/4 1605/6/4 1615/6/4
f 1607/1/4 1608/1/4 1616/1/4
f 1616/1/4 1608/1/4 1617/1/4
f 1609/1/4 1610/1/4 1618/1/4
f 1610/6/4 1611/6/4 1619/6/4
f 1618/1/4 1610/1/4 1619/1/4
f 1619/6/4 1611/6/4 1620/6/4
f 1613/6/4 1614/6/4 1621/6/4
f 1621/6/4 1614/6/4 1622/6/4
f 1617/1/4 1618/1/4 1623/1/4
f 1623/1/4 1618/1/4 1624/1/4
f 1625/1/4 1626/1/4 1627/1/4
f 1627/1/4 1626/1/4 1628/1/4
f 1629/6/4 1630/6/4 1631/6/4
f 1631/6/4 1630/6/4 1632/6/4
f 1633/6/4 1634/6/4 1638/6/4
f 1635/5/4 1636/5/4 1641/5/4
f 1641/5/4 1636/5/4 1642/5/4
f 1642/5/4 1636/5/4 1643/5/4
f 1643/5/4 1636/5/4 1644/5/4
f 1644/5/4 1636/5/4 1645/5/4
f 1637/6/4 1638/6/4 1648/6/4
f 1638/6/4 1634/6/4 1649/6/4
f 1648/6/4 1638/6/4 1649/6/4
f 1639/7/4 1640/7/4 1652/7/4
f 1652/7/4 1640/7/4 1653/7/4
f 1642/5/4 1643/5/4 1656/5/4
f 1656/5/4 1643/5/4 1657/5/4
f 1644/5/4 1645/5/4 1658/5/4
f 1658/5/4 1645/5/4 1659/5/4
f 1645/7/4 1646/7/4 1660/7/4
f 1659/5/4 1645/5/4 1660/5/4
f 1660/7/4 1646/7/4 1661/7/4
f 1649/6/4 1650/6/4 1663/6/4
f 1647/6/4 1648/6/4 1663/6/4
f 1648/6/4 1649/6/4 1663/6/4
f 1663/6/4 1650/6/4 1664/6/4
f 1651/7/4 1652/7/4 1666/7/4
f 1666/7/4 1652/7/4 1667/7/4
f 1654/7/4 1655/7/4 1668/7/4
f 1668/7/4 1655/7/4 1669/7/4
f 1659/5/4 1660/5/4 1672/5/4
f 1672/5/4 1660/5/4 1673/5/4
f 1662/6/4 1663/6/4 1675/6/4
f 1664/6/4 1665/6/4 1675/6/4
f 1663/6/4 1664/6/4 1675/6/4
f 1669/7/4 1670/7/4 1678/7/4
f 1678/7/4 1670/7/4 1679/7/4
f 1671/5/4 1672/5/4 1680/5/4
f 1680/5/4 1672/5/4 1681/5/4
f 1674/6/4 1675/6/4 1683/6/4
f 1675/6/4 1665/6/4 1684/6/4
f 1683/6/4 1675/6/4 1684/6/4
f 1676/1/4 1677/1/4 1685/1/4
f 1685/1/4 1677/1/4 1686/1/4
f 1681/5/4 1682/5/4 1692/5/4
f 1692/5/4 1682/5/4 1693/5/4
f 1684/6/4 1665/6/4 1695/6/4
f 1695/6/4 1665/6/4 1696/6/4
f 1696/6/4 1665/6/4 1697/6/4
f 1697/6/4 1665/6/4 1698/6/4
f 1687/7/4 1688/7/4 1702/7/4
f 1702/7/4 1688/7/4 1703/7/4
f 1689/5/4 1690/5/4 1705/5/4
f 1705/5/4 1690/5/4 1706/5/4
f 1691/5/4 1692/5/4 1707/5/4
f 1692/5/4 1693/5/4 1707/5/4
f 1693/7/4 1694/7/4 1708/7/4
f 1707/5/4 1693/5/4 1708/5/4
f 1708/7/4 1694/7/4 1709/7/4
f 1696/6/4 1697/6/4 1711/6/4
f 1711/6/4 1697/6/4 1712/6/4
f 1712/6/4 1697/6/4 1713/6/4
f 1713/6/4 1697/6/4 1714/6/4
f 1699/7/4 1700/7/4 1715/7/4
f 1715/7/4 1700/7/4 1716/7/4
f 1701/7/4 1702/7/4 1718/7/4
f 1718/7/4 1702/7/4 1719/7/4
f 1706/5/4 1707/5/4 1720/5/4
f 1705/5/4 1706/5/4 1720/5/4
f 1704/5/4 1705/5/4 1720/5/4
f 1707/5/4 1708/5/4 1720/5/4
f 1720/5/4 1708/5/4 1721/5/4
f 1710/6/4 1711/6/4 1722/6/4
f 1722/6/4 1711/6/4 1723/6/4
f 1712/6/4 1713/6/4 1724/6/4
f 1724/6/4 1713/6/4 1725/6/4
f 1717/7/4 1718/7/4 1726/7/4
f 1726/7/4 1718/7/4 1727/7/4
f 1728/1/4 1729/1/4 1732/1/4
f 1732/1/4 1729/1/4 1733/1/4
f 1730/6/4 1731/6/4 1734/6/4
f 1734/6/4 1731/6/4 1735/6/4
f 1736/5/4 1737/5/4 1740/5/4
f 1738/7/4 1739/7/4 1742/7/4
f 1742/7/4 1739/7/4 1743/7/4
f 1740/5/4 1741/5/4 1745/5/4
f 1736/5/4 1740/5/4 1745/5/4
f 1745/5/4 1741/5/4 1746/5/4
f 1743/7/4 1744/7/4 1747/7/4
f 1747/7/4 1744/7/4 1748/7/4
f 1748/7/4 1744/7/4 1749/7/4
f 1748/7/4 1749/7/4 1756/7/4
f 1749/7/4 1750/7/4 1756/7/4
f 1756/7/4 1750/7/4 1757/7/4
f 1757/7/4 1750/7/4 1758/7/4
f 1751/5/4 1752/5/4 1759/5/4
f 1759/5/4 1752/5/4 1760/5/4
f 1753/7/4 1754/7/4 1761/7/4
f 1761/7/4 1754/7/4 1762/7/4
f 1755/7/4 1756/7/4 1763/7/4
f 1756/7/4 1757/7/4 1763/7/4
f 1763/7/4 1757/7/4 1764/7/4
f 1751/5/4 1759/5/4 1765/5/4
f 1765/5/4 1759/5/4 1766/5/4
f 1762/7/4 1763/7/4 1767/7/4
f 1767/7/4 1763/7/4 1768/7/4
f 1762/7/4 1767/7/4 1769/7/4
f 1769/7/4 1767/7/4 1770/7/4
f 1771/7/4 1772/7/4 1773/7/4
f 1771/7/4 1773/7/4 1775/7/4
f 1773/7/4 1774/7/4 1775/7/4
f 1775/7/4 1774/7/4 1776/7/4
f 1776/7/4 1774/7/4 1777/7/4
f 1777/7/4 1774/7/4 1778/7/4
f 1776/7/4 1777/7/4 1779/7/4
f 1779/7/4 1777/7/4 1780/7/4
f 1786/8/5 1782/8/5 1781/8/5
f 1787/8/5 1782/8/5 1786/8/5
f 1790/8/5 1784/8/5 1783/8/5
f 1791/8/5 1784/8/5 1790/8/5
f 1793/7/5 1786/7/5 1785/7/5
f 1794/8/5 1787/8/5 1786/8/5
f 1794/7/5 1786/7/5 1793/7/5
f 1795/7/5 1788/7/5 1787/7/5
f 1795/8/5 1787/8/5 1794/8/5
f 1796/7/5 1788/7/5 1795/7/5
f 1797/7/5 1790/7/5 1789/7/5
f 1798/8/5 1791/8/5 1790/8/5
f 1798/7/5 1790/7/5 1797/7/5
f 1799/7/5 1792/7/5 1791/7/5
f 1799/8/5 1791/8/5 1798/8/5
f 1800/7/5 1792/7/5 1799/7/5
f 1801/8/5 1794/8/5 1793/8/5
f 1801/8/5 1796/8/5 1795/8/5
f 1801/8/5 1795/8/5 1794/8/5
f 1802/8/5 1796/8/5 1801/8/5
f 1803/8/5 1798/8/5 1797/8/5
f 1803/8/5 1800/8/5 1799/8/5
f 1803/8/5 1799/8/5 1798/8/5
f 1804/8/5 1800/8/5 1803/8/5
f 1809/8/5 1806/8/5 1805/8/5
f 1810/8/5 1806/8/5 1809/8/5
f 1811/8/5 1808/8/5 1807/8/5
f 1812/8/5 1808/8/5 1811/8/5
f 1817/5/5 1814/5/5 1813/5/5
f 1818/5/5 1814/5/5 1817/5/5
f 1821/5/5 1816/5/5 1815/5/5
f 1822/5/5 1816/5/5 1821/5/5
f 1823/5/5 1819/5/5 1818/5/5
f 1824/5/5 1819/5/5 1823/5/5
f 1825/5/5 1821/5/5 1820/5/5
f 1826/5/5 1821/5/5 1825/5/5
f 1835/5/5 1828/5/5 1827/5/5
f 1836/5/5 1828/5/5 1835/5/5
f 1837/5/5 1832/5/5 1831/5/5
f 1838/5/5 1832/5/5 1837/5/5
f 1839/5/5 1834/5/5 1833/5/5
f 1840/5/5 1834/5/5 1839/5/5
f 1841/5/5 1830/5/5 1829/5/5
f 1842/5/5 1830/5/5 1841/5/5
f 1847/5/5 1844/5/5 1843/5/5
f 1848/5/5 1844/5/5 1847/5/5
f 1849/5/5 1846/5/5 1845/5/5
f 1850/5/5 1846/5/5 1849/5/5
f 1856/5/5 1852/5/5 1851/5/5
f 1857/5/5 1852/5/5 1856/5/5
f 1858/5/5 1854/5/5 1853/5/5
f 1859/5/5 1854/5/5 1858/5/5
f 1861/5/5 1856/5/5 1855/5/5
f 1862/5/5 1856/5/5 1861/5/5
f 1863/5/5 1860/5/5 1859/5/5
f 1864/5/5 1860/5/5 1863/5/5
f 1869/5/5 1866/5/5 1865/5/5
f 1870/5/5 1866/5/5 1869/5/5
f 1871/5/5 1868/5/5 1867/5/5
f 1872/5/5 1868/5/5 1871/5/5
f 1877/5/5 1874/5/5 1873/5/5
f 1878/5/5 1874/5/5 1877/5/5
f 1879/5/5 1876/5/5 1875/5/5
f 1880/5/5 1876/5/5 1879/5/5
f 1889/1/5 1886/1/5 1885/1/5
f 1890/1/5 1886/1/5 1889/1/5
f 1891/1/5 1888/1/5 1887/1/5
f 1892/1/5 1888/1/5 1891/1/5
f 1894/5/5 1882/5/5 1881/5/5
f 1895/5/5 1884/5/5 1883/5/5
f 1897/5/5 1894/5/5 1893/5/5
f 1898/5/5 1882/5/5 1894/5/5
f 1898/5/5 1894/5/5 1897/5/5
f 1899/5/5 1896/5/5 1895/5/5
f 1899/5/5 1895/5/5 1883/5/5
f 1900/5/5 1896/5/5 1899/5/5
f 1907/1/5 1902/1/5 1901/1/5
f 1908/1/5 1902/1/5 1907/1/5
f 1909/1/5 1906/1/5 1905/1/5
f 1910/1/5 1906/1/5 1909/1/5
f 1911/5/5 1904/5/5 1903/5/5
f 1912/5/5 1904/5/5 1911/5/5
f 1919/1/5 1914/1/5 1913/1/5
f 1920/1/5 1914/1/5 1919/1/5
f 1921/5/5 1916/5/5 1915/5/5
f 1922/5/5 1916/5/5 1921/5/5
f 1923/1/5 1918/1/5 1917/1/5
f 1924/1/5 1918/1/5 1923/1/5
f 1929/1/5 1926/1/5 1925/1/5
f 1930/1/5 1926/1/5 1929/1/5
f 1933/1/5 1928/1/5 1927/1/5
f 1934/1/5 1928/1/5 1933/1/5
f 1935/1/5 1931/1/5 1930/1/5
f 1936/1/5 1931/1/5 1935/1/5
f 1937/1/5 1933/1/5 1932/1/5
f 1938/1/5 1933/1/5 1937/1/5
f 1945/7/5 1940/7/5 1939/7/5
f 1946/7/5 1940/7/5 1945/7/5
f 1947/7/5 1942/7/5 1941/7/5
f 1948/7/5 1942/7/5 1947/7/5
f 1951/1/5 1944/1/5 1943/1/5
f 1952/1/5 1944/1/5 1951/1/5
f 1953/1/5 1950/1/5 1949/1/5
f 1954/1/5 1950/1/5 1953/1/5
f 1957/6/5 1956/6/5 1955/6/5
f 1958/6/5 1956/6/5 1957/6/5
f 1965/6/5 1960/6/5 1959/6/5
f 1966/6/5 1960/6/5 1965/6/5
f 1967/6/5 1962/6/5 1961/6/5
f 1968/6/5 1962/6/5 1967/6/5
f 1971/6/5 1964/6/5 1963/6/5
f 1972/6/5 1964/6/5 1971/6/5
f 1973/6/5 1970/6/5 1969/6/5
f 1974/6/5 1970/6/5 1973/6/5
f 1981/6/5 1976/6/5 1975/6/5
f 1982/6/5 1976/6/5 1981/6/5
f 1983/6/5 1978/6/5 1977/6/5
f 1984/6/5 1978/6/5 1983/6/5
f 1985/6/5 1980/6/5 1979/6/5
f 1986/6/5 1980/6/5 1985/6/5
f 1989/6/5 1988/6/5 1987/6/5
f 1990/6/5 1988/6/5 1989/6/5
f 1993/6/5 1992/6/5 1991/6/5
f 1994/6/5 1992/6/5 1993/6/5
f 1997/6/5 1996/6/5 1995/6/5
f 1998/6/5 1996/6/5 1997/6/5
f 2001/6/5 2000/6/5 1999/6/5
f 2002/6/5 2000/6/5 2001/6/5
f 2003/6/5 2000/6/5 2002/6/5
f 2009/6/5 2005/6/5 2004/6/5
f 2010/6/5 2005/6/5 2009/6/5
f 2011/6/5 2007/6/5 2006/6/5
f 2012/6/5 2007/6/5 2011/6/5
f 2013/6/5 2009/6/5 2008/6/5
f 2014/6/5 2009/6/5 2013/6/5
f 2021/6/5 2018/6/5 2017/6/5
f 2022/6/5 2018/6/5 2021/6/5
f 2025/6/5 2016/6/5 2015/6/5
f 2026/6/5 2020/6/5 2019/6/5
f 2027/6/5 2020/6/5 2026/6/5
f 2028/6/5 2024/6/5 2023/6/5
f 2029/6/5 2024/6/5 2028/6/5
f 2030/6/5 2016/6/5 2025/6/5
f 2031/6/5 2016/6/5 2030/6/5
f 2037/6/5 2033/6/5 2032/6/5
f 2038/6/5 2033/6/5 2037/6/5
f 2039/6/5 2035/6/5 2034/6/5
f 2040/6/5 2035/6/5 2039/6/5
f 2042/6/5 2037/6/5 2036/6/5
f 2043/6/5 2037/6/5 2042/6/5
f 2044/6/5 2041/6/5 2040/6/5
f 2045/6/5 2041/6/5 2044/6/5
f 2046/6/5 2037/6/5 2043/6/5
f 2047/6/5 2037/6/5 2046/6/5
f 2050/6/5 2044/6/5 2040/6/5
f 2051/6/5 2044/6/5 2050/6/5
f 2052/6/5 2049/6/5 2048/6/5
f 2053/6/5 2049/6/5 2052/6/5
f 2060/6/5 2055/6/5 2054/6/5
f 2061/6/5 2055/6/5 2060/6/5
f 2062/6/5 2057/6/5 2056/6/5
f 2063/6/5 2057/6/5 2062/6/5
f 2066/6/5 2059/6/5 2058/6/5
f 2067/6/5 2059/6/5 2066/6/5
f 2068/6/5 2065/6/5 2064/6/5
f 2069/6/5 2065/6/5 2068/6/5
f 2074/6/5 2071/6/5 2070/6/5
f 2075/6/5 2071/6/5 2074/6/5
f 2079/6/5 2073/6/5 2072/6/5
f 2080/6/5 2073/6/5 2079/6/5
f 2081/6/5 2076/6/5 2075/6/5
f 2082/6/5 2076/6/5 2081/6/5
f 2083/6/5 2078/6/5 2077/6/5
f 2084/6/5 2078/6/5 2083/6/5
f 2087/1/5 2086/1/5 2085/1/5
f 2088/1/5 2086/1/5 2087/1/5
f 2089/1/5 2087/1/5 2085/1/5
f 2090/1/5 2087/1/5 2089/1/5
f 2091/1/5 2086/1/5 2088/1/5
f 2092/1/5 2086/1/5 2091/1/5
f 2095/1/5 2094/1/5 2093/1/5
f 2096/1/5 2094/1/5 2095/1/5
f 2102/1/5 2098/1/5 2097/1/5
f 2103/1/5 2098/1/5 2102/1/5
f 2104/1/5 2100/1/5 2099/1/5
f 2105/7/5 2101/7/5 2100/7/5
f 2105/1/5 2100/1/5 2104/1/5
f 2106/7/5 2101/7/5 2105/7/5
f 2107/7/5 2103/7/5 2102/7/5
f 2110/7/5 2105/7/5 2104/7/5
f 2111/1/5 2108/1/5 2107/1/5
f 2111/7/5 2107/7/5 2102/7/5
f 2112/1/5 2108/1/5 2111/1/5
f 2113/1/5 2110/1/5 2109/1/5
f 2114/7/5 2105/7/5 2110/7/5
f 2114/1/5 2110/1/5 2113/1/5
f 2115/7/5 2112/7/5 2111/7/5
f 2115/7/5 2111/7/5 2102/7/5
f 2116/7/5 2112/7/5 2115/7/5
f 2117/7/5 2112/7/5 2116/7/5
f 2118/7/5 2114/7/5 2113/7/5
f 2119/7/5 2105/7/5 2114/7/5
f 2119/7/5 2114/7/5 2118/7/5
f 2120/7/5 2105/7/5 2119/7/5
f 2121/1/5 2118/1/5 2117/1/5
f 2121/7/5 2117/7/5 2116/7/5
f 2122/7/5 2119/7/5 2118/7/5
f 2122/1/5 2118/1/5 2121/1/5
f 2123/7/5 2119/7/5 2122/7/5
f 2124/7/5 2121/7/5 2116/7/5
f 2124/7/5 2122/7/5 2121/7/5
f 2125/7/5 2122/7/5 2124/7/5
f 2131/1/5 2127/1/5 2126/1/5
f 2132/1/5 2127/1/5 2131/1/5
f 2135/1/5 2129/1/5 2128/1/5
f 2136/7/5 2130/7/5 2129/7/5
f 2136/1/5 2129/1/5 2135/1/5
f 2137/7/5 2130/7/5 2136/7/5
f 2140/1/5 2133/1/5 2132/1/5
f 2141/1/5 2133/1/5 2140/1/5
f 2142/1/5 2135/1/5 2134/1/5
f 2143/1/5 2135/1/5 2142/1/5
f 2146/7/5 2139/7/5 2138/7/5
f 2147/7/5 2139/7/5 2146/7/5
f 2150/7/5 2145/7/5 2144/7/5
f 2151/7/5 2148/7/5 2147/7/5
f 2152/7/5 2148/7/5 2151/7/5
f 2154/7/5 2150/7/5 2149/7/5
f 2155/7/5 2145/7/5 2150/7/5
f 2155/7/5 2150/7/5 2154/7/5
f 2156/7/5 2154/7/5 2153/7/5
f 2157/7/5 2154/7/5 2156/7/5
f 2162/1/5 2159/1/5 2158/1/5
f 2163/1/5 2159/1/5 2162/1/5
f 2165/1/5 2161/1/5 2160/1/5
f 2166/1/5 2161/1/5 2165/1/5
f 2172/7/5 2165/7/5 2164/7/5
f 2173/1/5 2166/1/5 2165/1/5
f 2173/7/5 2165/7/5 2172/7/5
f 2174/6/5 2167/6/5 2166/6/5
f 2174/1/5 2166/1/5 2173/1/5
f 2175/6/5 2167/6/5 2174/6/5
f 2176/6/5 2169/6/5 2168/6/5
f 2177/6/5 2169/6/5 2176/6/5
f 2178/7/5 2171/7/5 2170/7/5
f 2179/7/5 2171/7/5 2178/7/5
f 2184/7/5 2181/7/5 2180/7/5
f 2185/7/5 2181/7/5 2184/7/5
f 2186/7/5 2183/7/5 2182/7/5
f 2187/7/5 2183/7/5 2186/7/5
f 2192/7/5 2189/7/5 2188/7/5
f 2193/7/5 2189/7/5 2192/7/5
f 2194/7/5 2191/7/5 2190/7/5
f 2195/7/5 2191/7/5 2194/7/5
f 2200/7/5 2197/7/5 2196/7/5
f 2201/7/5 2197/7/5 2200/7/5
f 2202/7/5 2199/7/5 2198/7/5
f 2203/7/5 2199/7/5 2202/7/5
f 2208/1/5 2205/1/5 2204/1/5
f 2209/1/5 2205/1/5 2208/1/5
f 2210/1/5 2207/1/5 2206/1/5
f 2211/1/5 2207/1/5 2210/1/5
f 2216/7/5 2213/7/5 2212/7/5
f 2217/7/5 2213/7/5 2216/7/5
f 2218/7/5 2215/7/5 2214/7/5
f 2219/7/5 2215/7/5 2218/7/5
f 2222/7/5 2221/7/5 2220/7/5
f 2223/7/5 2221/7/5 2222/7/5
f 2224/8/6 2225/8/6 2229/8/6
f 2229/8/6 2225/8/6 2230/8/6
f 2226/8/6 2227/8/6 2233/8/6
f 2233/8/6 2227/8/6 2234/8/6
f 2228/7/6 2229/7/6 2236/7/6
f 2229/8/6 2230/8/6 2237/8/6
f 2236/7/6 2229/7/6 2237/7/6
f 2230/7/6 2231/7/6 2238/7/6
f 2237/8/6 2230/8/6 2238/8/6
f 2238/7/6 2231/7/6 2239/7/6
f 2232/7/6 2233/7/6 2240/7/6
f 2233/8/6 2234/8/6 2241/8/6
f 2240/7/6 2233/7/6 2241/7/6
f 2234/7/6 2235/7/6 2242/7/6
f 2241/8/6 2234/8/6 2242/8/6
f 2242/7/6 2235/7/6 2243/7/6
f 2238/8/6 2239/8/6 2244/8/6
f 2244/8/6 2239/8/6 2245/8/6
f 2240/8/6 2241/8/6 2246/8/6
f 2246/8/6 2241/8/6 2247/8/6
f 2248/8/6 2249/8/6 2252/8/6
f 2252/8/6 2249/8/6 2253/8/6
f 2250/8/6 2251/8/6 2254/8/6
f 2254/8/6 2251/8/6 2255/8/6
f 2256/8/6 2257/8/6 2262/8/6
f 2257/7/6 2258/7/6 2263/7/6
f 2262/8/6 2257/8/6 2263/8/6
f 2263/7/6 2258/7/6 2264/7/6
f 2259/7/6 2260/7/6 2266/7/6
f 2260/8/6 2261/8/6 2267/8/6
f 2266/7/6 2260/7/6 2267/7/6
f 2265/8/6 2266/8/6 2270/8/6
f 2270/8/6 2266/8/6 2271/8/6
f 2267/8/6 2261/8/6 2272/8/6
f 2272/8/6 2261/8/6 2273/8/6
f 2268/8/6 2269/8/6 2274/8/6
f 2274/8/6 2269/8/6 2275/8/6
f 2276/8/6 2277/8/6 2280/8/6
f 2278/8/6 2279/8/6 2281/8/6
f 2281/8/6 2279/8/6 2282/8/6
f 2276/8/6 2280/8/6 2287/8/6
f 2287/8/6 2280/8/6 2288/8/6
f 2283/8/6 2284/8/6 2289/8/6
f 2289/8/6 2284/8/6 2290/8/6
f 2285/8/6 2286/8/6 2291/8/6
f 2291/8/6 2286/8/6 2292/8/6
f 2293/5/6 2294/5/6 2297/5/6
f 2297/5/6 2294/5/6 2298/5/6
f 2295/5/6 2296/5/6 2301/5/6
f 2301/5/6 2296/5/6 2302/5/6
f 2298/5/6 2299/5/6 2303/5/6
f 2303/5/6 2299/5/6 2304/5/6
f 2300/5/6 2301/5/6 2305/5/6
f 2305/5/6 2301/5/6 2306/5/6
f 2307/5/6 2308/5/6 2311/5/6
f 2311/5/6 2308/5/6 2312/5/6
f 2309/5/6 2310/5/6 2317/5/6
f 2317/5/6 2310/5/6 2318/5/6
f 2313/5/6 2314/5/6 2319/5/6
f 2319/5/6 2314/5/6 2320/5/6
f 2315/5/6 2316/5/6 2321/5/6
f 2321/5/6 2316/5/6 2322/5/6
f 2323/5/6 2324/5/6 2327/5/6
f 2327/5/6 2324/5/6 2328/5/6
f 2325/5/6 2326/5/6 2329/5/6
f 2329/5/6 2326/5/6 2330/5/6
f 2331/5/6 2332/5/6 2335/5/6
f 2335/5/6 2332/5/6 2336/5/6
f 2333/5/6 2334/5/6 2337/5/6
f 2337/5/6 2334/5/6 2338/5/6
f 2339/5/6 2340/5/6 2342/5/6
f 2342/5/6 2340/5/6 2343/5/6
f 2341/5/6 2342/5/6 2345/5/6
f 2345/5/6 2342/5/6 2346/5/6
f 2343/5/6 2344/5/6 2347/5/6
f 2347/5/6 2344/5/6 2348/5/6
f 2349/1/6 2350/1/6 2354/1/6
f 2354/1/6 2350/1/6 2355/1/6
f 2351/1/6 2352/1/6 2356/1/6
f 2356/1/6 2352/1/6 2357/1/6
f 2353/1/6 2354/1/6 2363/1/6
f 2363/1/6 2354/1/6 2364/1/6
f 2359/5/6 2360/5/6 2366/5/6
f 2366/5/6 2360/5/6 2367/5/6
f 2361/5/6 2362/5/6 2374/5/6
f 2374/5/6 2362/5/6 2375/5/6
f 2357/1/6 2358/1/6 2377/1/6
f 2377/1/6 2358/1/6 2378/1/6
f 2364/1/6 2365/1/6 2379/1/6
f 2379/1/6 2365/1/6 2380/1/6
f 2367/5/6 2368/5/6 2381/5/6
f 2381/5/6 2368/5/6 2382/5/6
f 2369/5/6 2370/5/6 2383/5/6
f 2383/5/6 2370/5/6 2384/5/6
f 2371/5/6 2372/5/6 2385/5/6
f 2385/5/6 2372/5/6 2386/5/6
f 2373/5/6 2374/5/6 2387/5/6
f 2387/5/6 2374/5/6 2388/5/6
f 2376/1/6 2377/1/6 2389/1/6
f 2389/1/6 2377/1/6 2390/1/6
f 2391/7/6 2392/7/6 2397/7/6
f 2397/7/6 2392/7/6 2398/7/6
f 2393/7/6 2394/7/6 2399/7/6
f 2399/7/6 2394/7/6 2400/7/6
f 2395/1/6 2396/1/6 2403/1/6
f 2403/1/6 2396/1/6 2404/1/6
f 2401/1/6 2402/1/6 2405/1/6
f 2405/1/6 2402/1/6 2406/1/6
f 2407/7/6 2408/7/6 2411/7/6
f 2411/7/6 2408/7/6 2412/7/6
f 2409/7/6 2410/7/6 2413/7/6
f 2413/7/6 2410/7/6 2414/7/6
f 2415/6/6 2416/6/6 2419/6/6
f 2419/6/6 2416/6/6 2420/6/6
f 2417/6/6 2418/6/6 2421/6/6
f 2421/6/6 2418/6/6 2422/6/6
f 2423/6/6 2424/6/6 2427/6/6
f 2427/6/6 2424/6/6 2428/6/6
f 2425/6/6 2426/6/6 2429/6/6
f 2429/6/6 2426/6/6 2430/6/6
f 2431/6/6 2432/6/6 2435/6/6
f 2435/6/6 2432/6/6 2436/6/6
f 2433/6/6 2434/6/6 2437/6/6
f 2437/6/6 2434/6/6 2438/6/6
f 2439/6/6 2440/6/6 2441/6/6
f 2441/6/6 2440/6/6 2442/6/6
f 2443/6/6 2444/6/6 2445/6/6
f 2445/6/6 2444/6/6 2446/6/6
f 2447/6/6 2448/6/6 2453/6/6
f 2453/6/6 2448/6/6 2454/6/6
f 2449/6/6 2450/6/6 2455/6/6
f 2455/6/6 2450/6/6 2456/6/6
f 2451/6/6 2452/6/6 2459/6/6
f 2459/6/6 2452/6/6 2460/6/6
f 2457/6/6 2458/6/6 2463/6/6
f 2463/6/6 2458/6/6 2464/6/6
f 2461/6/6 2462/6/6 2465/6/6
f 2465/6/6 2462/6/6 2466/6/6
f 2467/6/6 2468/6/6 2469/6/6
f 2469/6/6 2468/6/6 2470/6/6
f 2471/6/6 2472/6/6 2475/6/6
f 2475/6/6 2472/6/6 2476/6/6
f 2473/6/6 2474/6/6 2477/6/6
f 2477/6/6 2474/6/6 2478/6/6
f 2479/6/6 2480/6/6 2483/6/6
f 2483/6/6 2480/6/6 2484/6/6
f 2481/6/6 2482/6/6 2485/6/6
f 2485/6/6 2482/6/6 2486/6/6
f 2487/6/6 2488/6/6 2492/6/6
f 2492/6/6 2488/6/6 2493/6/6
f 2489/6/6 2490/6/6 2494/6/6
f 2494/6/6 2490/6/6 2495/6/6
f 2491/6/6 2492/6/6 2497/6/6
f 2497/6/6 2492/6/6 2498/6/6
f 2495/6/6 2496/6/6 2502/6/6
f 2502/6/6 2496/6/6 2503/6/6
f 2498/6/6 2499/6/6 2504/6/6
f 2504/6/6 2499/6/6 2505/6/6
f 2500/6/6 2501/6/6 2506/6/6
f 2506/6/6 2501/6/6 2507/6/6
f 2508/6/6 2509/6/6 2513/6/6
f 2513/6/6 2509/6/6 2514/6/6
f 2514/6/6 2509/6/6 2515/6/6
f 2510/6/6 2511/6/6 2516/6/6
f 2516/6/6 2511/6/6 2517/6/6
f 2517/6/6 2511/6/6 2518/6/6
f 2512/6/6 2513/6/6 2520/6/6
f 2513/6/6 2514/6/6 2520/6/6
f 2518/6/6 2519/6/6 2523/6/6
f 2517/6/6 2518/6/6 2523/6/6
f 2520/6/6 2521/6/6 2524/6/6
f 2512/6/6 2520/6/6 2524/6/6
f 2524/6/6 2521/6/6 2525/6/6
f 2522/6/6 2523/6/6 2526/6/6
f 2523/6/6 2519/6/6 2526/6/6
f 2526/6/6 2519/6/6 2527/6/6
f 2525/6/6 2521/6/6 2528/6/6
f 2528/6/6 2521/6/6 2529/6/6
f 2522/6/6 2526/6/6 2530/6/6
f 2530/6/6 2526/6/6 2531/6/6
f 2532/6/6 2533/6/6 2537/6/6
f 2537/6/6 2533/6/6 2538/6/6
f 2534/6/6 2535/6/6 2539/6/6
f 2539/6/6 2535/6/6 2540/6/6
f 2536/6/6 2537/6/6 2542/6/6
f 2542/6/6 2537/6/6 2543/6/6
f 2540/6/6 2541/6/6 2546/6/6
f 2546/6/6 2541/6/6 2547/6/6
f 2543/6/6 2544/6/6 2548/6/6
f 2545/6/6 2546/6/6 2549/6/6
f 2543/6/6 2548/6/6 2550/6/6
f 2548/6/6 2549/6/6 2550/6/6
f 2549/6/6 2546/6/6 2551/6/6
f 2550/6/6 2549/6/6 2551/6/6
f 2552/1/6 2553/1/6 2556/1/6
f 2556/1/6 2553/1/6 2557/1/6
f 2554/1/6 2555/1/6 2558/1/6
f 2558/1/6 2555/1/6 2559/1/6
f 2560/1/6 2561/1/6 2564/1/6
f 2564/1/6 2561/1/6 2565/1/6
f 2562/1/6 2563/1/6 2566/1/6
f 2566/1/6 2563/1/6 2567/1/6
f 2568/7/6 2569/7/6 2570/7/6
f 2570/7/6 2569/7/6 2571/7/6
f 2572/1/6 2573/1/6 2575/1/6
f 2575/1/6 2573/1/6 2576/1/6
f 2574/1/6 2575/1/6 2578/1/6
f 2578/1/6 2575/1/6 2579/1/6
f 2576/1/6 2577/1/6 2580/1/6
f 2580/1/6 2577/1/6 2581/1/6
f 2582/7/6 2583/7/6 2586/7/6
f 2586/7/6 2583/7/6 2587/7/6
f 2584/7/6 2585/7/6 2588/7/6
f 2588/7/6 2585/7/6 2589/7/6
f 2590/7/6 2591/7/6 2592/7/6
f 2592/7/6 2591/7/6 2593/7/6
f 2594/7/6 2595/7/6 2596/7/6
f 2596/7/6 2595/7/6 2597/7/6
f 2598/7/6 2599/7/6 2602/7/6
f 2602/7/6 2599/7/6 2603/7/6
f 2600/7/6 2601/7/6 2606/7/6
f 2606/7/6 2601/7/6 2607/7/6
f 2604/7/6 2605/7/6 2608/7/6
f 2608/7/6 2605/7/6 2609/7/6
f 2610/7/6 2611/7/6 2615/7/6
f 2615/7/6 2611/7/6 2616/7/6
f 2612/7/6 2613/7/6 2617/7/6
f 2617/7/6 2613/7/6 2618/7/6
f 2614/7/6 2615/7/6 2621/7/6
f 2621/7/6 2615/7/6 2622/7/6
f 2618/7/6 2619/7/6 2623/7/6
f 2623/7/6 2619/7/6 2624/7/6
f 2620/7/6 2621/7/6 2625/7/6
f 2625/7/6 2621/7/6 2626/7/6
f 2627/7/6 2628/7/6 2630/7/6
f 2629/7/6 2630/7/6 2631/7/6
f 2630/7/6 2628/7/6 2632/7/6
f 2631/7/6 2630/7/6 2632/7/6
f 2632/7/6 2628/7/6 2633/7/6
f 2634/7/6 2635/7/6 2636/7/6
f 2636/7/6 2635/7/6 2637/7/6
f 2638/7/6 2639/7/6 2640/7/6
f 2640/7/6 2639/7/6 2641/7/6
f 2643/7/6 2644/7/6 2645/7/6
f 2645/7/6 2644/7/6 2646/7/6
f 2641/7/6 2642/7/6 2649/7/6
f 2649/7/6 2642/7/6 2650/7/6
f 2646/7/6 2647/7/6 2651/7/6
f 2651/7/6 2647/7/6 2652/7/6
f 2648/7/6 2649/7/6 2655/7/6
f 2655/7/6 2649/7/6 2656/7/6
f 2652/7/6 2653/7/6 2657/7/6
f 2657/7/6 2653/7/6 2658/7/6
f 2654/7/6 2655/7/6 2659/7/6
f 2659/7/6 2655/7/6 2660/7/6
f 2661/7/6 2662/7/6 2663/7/6
f 2663/7/6 2662/7/6 2664/7/6
f 2664/7/6 2662/7/6 2665/7/6
f 2665/7/6 2662/7/6 2666/7/6
f 2664/7/6 2665/7/6 2667/7/6
f 2667/7/6 2665/7/6 2668/7/6
f 2668/7/6 2665/7/6 2669/7/6
f 2669/7/6 2665/7/6 2670/7/6
f 2668/7/6 2669/7/6 2671/7/6
f 2671/7/6 2669/7/6 2672/7/6
